<svg width="120" height="61" viewBox="0 0 120 61" fill="none" xmlns="http://www.w3.org/2000/svg">
    <path d="M37.5758 18.6781C37.3562 18.6781 37.1915 18.8794 37.1915 19.099C37.1915 19.099 37.1549 32.5297 37.1549 32.6944C37.0085 32.6944 0.979724 32.5846 0.979724 32.5846L0.961426 33.4263L37.5209 33.5178L37.7771 33.408L37.9051 33.1152C37.9051 33.1152 37.9417 19.6845 37.9417 19.5198C38.0698 19.5198 42.9371 19.5198 43.0835 19.5198C43.0835 19.6845 43.0469 33.1152 43.0469 33.1152L43.1567 33.408L43.4128 33.5544L82.3876 33.6459V32.8042C82.3876 32.8042 43.9252 32.7127 43.7788 32.7127C43.7788 32.548 43.8154 19.099 43.8154 19.099C43.8154 18.8611 43.6507 18.6781 43.4494 18.6781H37.5758Z" fill="#0067B2"/>
    <path d="M36.7339 12.9508C36.7339 15.1648 38.4722 16.9763 40.6497 16.9763C42.8088 16.9763 44.5837 15.1831 44.5837 12.9691C44.5837 10.7367 42.8271 8.94348 40.6497 8.94348C38.4905 8.94348 36.7339 10.7367 36.7339 12.9508ZM37.4658 12.9508C37.4658 11.1941 38.9114 9.76691 40.6497 9.7852C42.4246 9.7852 43.8335 11.2124 43.8335 12.9874C43.8335 14.744 42.4063 16.1529 40.6314 16.1529C38.8931 16.1529 37.4658 14.7257 37.4658 12.9508Z" fill="#0067B2"/>
    <path d="M10.312 30.0593C9.635 29.7483 8.99457 29.2725 8.22605 28.504C7.09157 27.4061 6.10348 26.3082 5.37156 25.3201C5.37156 25.3201 5.99369 25.2836 6.30476 25.2104C6.76221 25.1189 7.12817 25.0457 7.53073 24.8444C8.15286 24.5333 8.42733 24.2771 8.7384 23.8197C9.03116 23.3805 9.21414 22.795 9.21414 22.3193C9.21414 21.4776 8.79329 20.7639 8.07967 20.1784C7.40264 19.6295 6.19497 19.3001 5.26177 19.2452C4.56644 19.2086 3.90772 19.2086 3.90772 19.2086H2.71834C2.51706 19.2086 2.46217 19.2086 2.35238 19.2086H1.07152C1.2728 19.3184 1.40089 19.5197 1.45578 19.8125L1.49238 20.1052L1.47408 29.4372L1.43748 29.73C1.40089 29.9861 1.2911 30.1508 1.14471 30.2606L1.05322 30.3155H1.71195L2.26089 30.3338H3.1575L3.06601 30.2789C2.84643 30.0959 2.73664 29.8215 2.71834 29.4555V25.5397H3.56005L3.68814 25.7044C4.16389 26.3448 4.65793 26.8572 5.17028 27.4061C6.23156 28.6138 7.51243 29.5287 9.17755 30.2423L9.78138 30.407H11.172C11.172 30.407 10.4035 30.1325 10.312 30.0593ZM2.79154 24.1491C2.79154 24.1491 2.79154 20.8554 2.79154 20.6175C2.79154 20.3614 2.71834 20.2699 2.71834 20.2699C2.71834 20.2699 7.95158 19.7575 7.95158 22.3376C7.95158 24.7163 2.79154 24.1491 2.79154 24.1491Z" fill="black"/>
    <path d="M21.9492 30.3705H22.9007H22.8458C22.5347 30.1692 22.3151 29.8948 22.187 29.602L17.1002 18.7878L16.7525 19.3002L16.4964 19.6845L16.0755 20.2334H16.1121C16.1853 20.2517 16.2219 20.2883 16.2402 20.3066L16.3134 20.4347L16.3683 20.5445L16.4598 20.7275L12.1231 29.4556C11.9036 29.8948 11.684 30.2241 11.5742 30.2973L11.5376 30.3339H12.9465L12.8734 30.279C12.7636 30.1692 12.727 30.0228 12.727 29.9131C12.727 29.9131 12.7636 29.785 12.8551 29.5837C12.9465 29.3824 14.5019 26.29 14.5019 26.29L18.9666 26.3083L20.5768 29.5654L20.6683 29.785L20.6866 29.9131C20.6866 30.096 20.5951 30.2424 20.4487 30.3156H20.3938H21.4368H21.9492V30.3705ZM14.758 25.7594L16.7891 21.4594L18.8568 25.7594H14.758Z" fill="black"/>
    <path d="M55.4162 30.4619H56.386H56.3128C56.0017 30.2606 55.7639 29.9862 55.6541 29.6934L50.5672 18.8793L50.2379 19.3916L49.9634 19.7759H49.9451L49.5242 20.3248L49.5791 20.3431C49.634 20.3614 49.6889 20.3797 49.7072 20.4163L49.7621 20.5444L49.817 20.6542L49.9085 20.8372L45.5719 29.5653C45.3706 30.0045 45.1327 30.3338 45.0412 30.407L44.9863 30.4436H46.3953L46.3404 30.3887C46.2123 30.279 46.1757 30.1325 46.1757 30.0228C46.1757 30.0228 46.2123 29.8947 46.3221 29.6934C46.4136 29.4921 47.9689 26.3998 47.9689 26.3998L52.4336 26.4181L54.0256 29.6751L54.1171 29.8947L54.1353 30.0228C54.1353 30.2057 54.0439 30.3521 53.8975 30.4253L54.9405 30.4436H54.9222H55.4162V30.4619ZM48.2251 25.8325L50.2745 21.5325L52.3421 25.8325H48.2251Z" fill="black"/>
    <path d="M67.8219 19.4283L67.9317 19.4832C68.0964 19.5564 68.1879 19.6845 68.2245 19.8675C68.2428 19.959 68.2428 20.0322 68.2428 20.1053V28.1199L63.2291 23.3441L59.2951 19.6479C59.2951 19.6113 59.2768 19.5015 59.2768 19.5015L59.35 19.41H57.4836H57.0078L57.0993 19.4649C57.0993 19.4649 57.2091 19.5198 57.3555 19.6296C57.5202 19.7394 57.7946 20.0688 57.7946 20.0688L57.7763 29.7484V29.9863C57.7763 30.1693 57.6848 30.2974 57.4836 30.3889L57.3555 30.4254H59.0938C58.8559 30.3705 58.7278 30.2242 58.6912 29.9863C58.6729 29.8948 58.6729 29.8216 58.6729 29.7484L58.6912 20.4896H58.7095L69.2309 30.4986L69.2492 20.0688C69.2492 20.0139 69.2492 19.9407 69.2675 19.8492C69.3041 19.6113 69.4322 19.4649 69.67 19.3917H67.8219V19.4283Z" fill="black"/>
    <path d="M76.6603 19.4465V19.4648L76.1663 19.4465V19.4282H70.4756L70.6403 20.7457H70.6952L70.805 20.6542C70.9696 20.4712 71.1892 20.3797 71.4271 20.3797L75.6905 20.398L75.6722 29.6019L75.6539 29.9313C75.6173 30.1692 75.5075 30.3338 75.3429 30.4619L75.2697 30.4985L77.5752 30.5168C77.3556 30.4253 77.2275 30.2241 77.191 29.9313L77.1727 29.6019L77.191 20.398H81.4361C81.6923 20.398 81.8935 20.4895 82.0582 20.6725L82.168 20.764H82.2046L82.4059 19.4465H76.6603Z" fill="black"/>
    <path d="M33.8246 20.7456C32.6353 19.8673 30.9701 19.4099 28.811 19.3733H27.6765H25.0599H23.962H23.3948C23.6143 19.4831 23.7424 19.6844 23.7973 19.9771L23.8339 20.2699L23.8156 29.5287L23.779 29.8214C23.7424 30.0593 23.6326 30.224 23.468 30.3521L23.3765 30.407H24.2914H24.7854H28.0974H29.2135C30.3297 30.4253 31.2995 30.2789 32.1961 29.9495C33.294 29.5653 34.2089 28.8699 34.9408 27.8819C35.6544 26.9121 36.0204 25.9057 36.0387 24.8444C36.0204 23.1793 35.3068 21.8252 33.8246 20.7456ZM34.0625 26.7657C33.5868 27.644 32.8731 28.3576 31.9582 28.8516C30.9884 29.364 29.9272 29.6202 28.7927 29.6202H27.6765L25.2612 29.6019L25.2795 20.0503H27.2191L28.628 20.0686C29.5612 20.1052 30.4212 20.2516 31.1897 20.5444C32.2144 20.9286 33.0378 21.5142 33.6417 22.2827C34.2455 23.0329 34.5566 23.8746 34.5566 24.8078C34.5749 25.5031 34.4102 26.1435 34.0625 26.7657Z" fill="black"/>
    <path d="M0.833496 35.6404H4.65778V36.3906H1.65691V38.5315H4.58459V39.2817H1.65691V42.0996H4.65778V42.8498H0.833496V35.6404Z" fill="#0067B2"/>
    <path d="M7.58574 38.3484H8.53723L9.7449 39.8854L10.9526 38.3484H11.9407L10.2572 40.4527L12.1785 42.8314H11.2087L9.7449 41.0016L8.28106 42.8314H7.29297L9.25086 40.4527L7.58574 38.3484Z" fill="#0067B2"/>
    <path d="M15.6364 38.989H15.6547C16.039 38.4949 16.6062 38.2205 17.2467 38.2205C18.6007 38.2205 19.4607 39.3549 19.4607 40.5992C19.4607 41.8801 18.619 42.9596 17.2467 42.9596C16.6245 42.9596 16.039 42.6852 15.673 42.2094H15.6364V45.3567H14.8496V38.3485H15.6364V38.989ZM15.5815 40.5443C15.5815 41.4226 16.1122 42.2643 17.082 42.2643C18.0884 42.2643 18.619 41.4775 18.619 40.5626C18.619 39.666 18.0335 38.9341 17.0637 38.9341C16.1854 38.9341 15.5815 39.7026 15.5815 40.5443Z" fill="#0067B2"/>
    <path d="M22.0962 40.5992C22.0962 39.2817 23.1575 38.2205 24.5115 38.2205C25.8656 38.2205 26.9269 39.2817 26.9269 40.5992C26.9269 41.9167 25.8473 42.9596 24.5115 42.9596C23.1758 42.9596 22.0962 41.9167 22.0962 40.5992ZM22.883 40.5992C22.883 41.5141 23.5417 42.2643 24.5115 42.2643C25.4813 42.2643 26.1401 41.5141 26.1401 40.5992C26.1401 39.6843 25.4813 38.9341 24.5115 38.9341C23.5417 38.9341 22.883 39.6843 22.883 40.5992Z" fill="#0067B2"/>
    <path d="M30.7324 38.8425H30.7507C31.0252 38.4948 31.263 38.2386 31.7754 38.2386C32.0315 38.2386 32.2511 38.3301 32.489 38.4399L32.123 39.1353C31.9584 39.0255 31.8669 38.934 31.6473 38.934C30.7873 38.934 30.7507 40.0136 30.7507 40.5991V42.8498H29.9639V38.3667H30.7507V38.8425H30.7324Z" fill="#0067B2"/>
    <path d="M36.2587 42.8315H35.4718V39.0438H34.9961V38.3302H35.4718V36.72H36.2587V38.3302H37.0821V39.0438H36.2587V42.8315Z" fill="#0067B2"/>
    <path d="M45.572 42.8315H44.7485V35.6404H45.572V42.8315Z" fill="#0067B2"/>
    <path d="M49.8173 38.8425H49.8356C50.0735 38.4765 50.476 38.2386 50.9335 38.2386C51.4824 38.2386 51.9582 38.5131 52.2144 38.9889C52.4888 38.4948 53.0378 38.2386 53.605 38.2386C54.7761 38.2386 55.0689 39.1718 55.0689 40.1233V42.8498H54.282V40.2514C54.282 39.6659 54.2454 38.9523 53.4403 38.9523C52.5437 38.9523 52.4339 39.794 52.4339 40.471V42.8498H51.6471V40.3063C51.6471 39.7574 51.5739 38.9523 50.8237 38.9523C49.9088 38.9523 49.799 39.8672 49.799 40.5442V42.868H49.0122V38.385H49.799V38.8425H49.8173Z" fill="#0067B2"/>
    <path d="M59.2778 38.989H59.2961C59.6804 38.4949 60.2476 38.2205 60.888 38.2205C62.2421 38.2205 63.1021 39.3549 63.1021 40.5992C63.1021 41.8801 62.2604 42.9596 60.888 42.9596C60.2659 42.9596 59.6803 42.6852 59.3144 42.2094H59.2961V45.3567H58.5093V38.3485H59.2961V38.989H59.2778ZM59.2412 40.5443C59.2412 41.4226 59.7718 42.2643 60.7599 42.2643C61.7663 42.2643 62.297 41.4775 62.297 40.5626C62.297 39.666 61.7114 38.9341 60.7416 38.9341C59.8267 38.9341 59.2412 39.7026 59.2412 40.5443Z" fill="#0067B2"/>
    <path d="M65.7368 40.5992C65.7368 39.2817 66.7981 38.2205 68.1522 38.2205C69.5062 38.2205 70.5675 39.2817 70.5675 40.5992C70.5675 41.9167 69.4879 42.9596 68.1522 42.9596C66.8164 42.9596 65.7368 41.9167 65.7368 40.5992ZM66.5236 40.5992C66.5236 41.5141 67.1824 42.2643 68.1705 42.2643C69.1402 42.2643 69.799 41.5141 69.799 40.5992C69.799 39.6843 69.1402 38.9341 68.1705 38.9341C67.2007 38.9341 66.5236 39.6843 66.5236 40.5992Z" fill="#0067B2"/>
    <path d="M74.3732 38.8425H74.3915C74.666 38.4948 74.9039 38.2386 75.4162 38.2386C75.6724 38.2386 75.892 38.3301 76.1116 38.4399L75.7456 39.1353C75.5809 39.0255 75.4894 38.934 75.2699 38.934C74.4098 38.934 74.3732 40.0136 74.3732 40.5991V42.8498H73.5864V38.3667H74.3732V38.8425Z" fill="#0067B2"/>
    <path d="M79.8993 42.8315H79.1125V39.0438H78.6367V38.3302H79.1125V36.72H79.8993V38.3302H80.7227V39.0438H79.8993V42.8315Z" fill="#0067B2"/>
    <path d="M119.167 29.9862L93.9339 0.453216L77.2827 0.416626L101.601 29.9679L119.167 29.9862ZM93.696 0.654495L93.5497 0.508122H93.8241L93.696 0.654495Z" fill="#0057A5"/>
    <path opacity="0.75" d="M84.8583 11.2857L76.4961 1.13025L65.4624 13.9572L82.6077 13.9938L84.8583 11.2857Z" fill="#0067B2"/>
    <path d="M93.696 0.654552L93.824 0.508179H93.5679L93.696 0.654552Z" fill="#DE0B15"/>
    <path d="M101.582 31.2123L77.1362 60.5806H93.9338L119.167 31.2489L101.582 31.2123Z" fill="#0067B2"/>
    <path opacity="0.75" d="M84.7851 49.8213L82.571 47.1315L65.4258 47.0948L76.368 59.9218L84.7851 49.8213Z" fill="#0067B2"/>
</svg>
