<svg width="120" height="76" viewBox="0 0 120 76" fill="none" xmlns="http://www.w3.org/2000/svg">
    <path d="M14.6532 45.5593C14.6532 46.725 14.4843 47.7725 14.1464 48.7186C13.8085 49.6648 13.3354 50.4757 12.7272 51.1684C12.119 51.8442 11.3756 52.368 10.5308 52.7397C9.68605 53.1114 8.75682 53.2972 7.76001 53.2972C6.74631 53.2972 5.81706 53.1114 4.9723 52.7397C4.12755 52.368 3.38418 51.8442 2.77596 51.1684C2.16774 50.4757 1.67777 49.6648 1.33987 48.7186C1.00196 47.7725 0.833008 46.725 0.833008 45.5593C0.833008 44.4104 1.00196 43.346 1.33987 42.3999C1.67777 41.4537 2.16774 40.6259 2.77596 39.9501C3.38418 39.2743 4.12755 38.7505 4.9723 38.3788C5.81706 38.0071 6.74631 37.8213 7.76001 37.8213C8.75682 37.8213 9.68605 38.0071 10.5308 38.3788C11.3925 38.7505 12.119 39.2743 12.7272 39.9501C13.3354 40.6428 13.8254 41.4537 14.1464 42.3999C14.4843 43.346 14.6532 44.4104 14.6532 45.5593ZM11.8993 45.5593C11.8993 43.8866 11.5276 42.5688 10.7842 41.5889C10.0408 40.609 9.02715 40.119 7.74313 40.119C6.4422 40.119 5.42847 40.609 4.68509 41.5889C3.94171 42.5688 3.57003 43.8866 3.57003 45.5593C3.57003 47.215 3.94171 48.5328 4.68509 49.5127C5.42847 50.4926 6.4422 50.9657 7.74313 50.9657C9.02715 50.9657 10.0408 50.4757 10.7842 49.5127C11.5276 48.5328 11.8993 47.215 11.8993 45.5593Z" fill="#7F6B47"/>
    <path d="M16.3428 38.6153C16.951 38.4633 17.762 38.2943 18.7588 38.1254C19.7556 37.9564 20.9045 37.8719 22.2054 37.8719C23.3711 37.8719 24.3511 38.0409 25.1282 38.3619C25.9054 38.6829 26.5136 39.156 26.9867 39.7473C27.4429 40.3386 27.7807 41.0482 27.9666 41.893C28.1524 42.7208 28.2538 43.6332 28.2538 44.6469V52.9255H25.6182V45.2213C25.6182 44.309 25.5506 43.5318 25.4323 42.8898C25.3141 42.2478 25.0944 41.724 24.8241 41.3186C24.5369 40.9131 24.1652 40.6258 23.6921 40.4569C23.2191 40.2711 22.6278 40.1866 21.9351 40.1866C21.6647 40.1866 21.3606 40.2035 21.0565 40.2204C20.7524 40.2373 20.4652 40.2711 20.1949 40.3048C19.9245 40.3386 19.6711 40.3724 19.4684 40.4062C19.2487 40.44 19.0967 40.4738 18.9953 40.4907V52.9424H16.3597V38.6153H16.3428Z" fill="#7F6B47"/>
    <path d="M37.0055 53.2803C35.8229 53.2803 34.7754 53.0945 33.8799 52.7059C32.9845 52.3342 32.2242 51.7935 31.616 51.1177C31.0078 50.4419 30.5516 49.631 30.2306 48.6848C29.9265 47.7556 29.7744 46.725 29.7744 45.593C29.7744 44.4611 29.9434 43.4136 30.2813 42.4674C30.6192 41.5213 31.0753 40.6934 31.6836 40.0176C32.2918 39.3249 33.0352 38.7843 33.8968 38.3957C34.7754 38.0071 35.7553 37.8213 36.8366 37.8213C37.4955 37.8213 38.1544 37.8889 38.8302 37.9902C39.4891 38.1085 40.1311 38.2943 40.7394 38.5309L40.148 40.761C39.7594 40.5752 39.2864 40.4231 38.7795 40.3049C38.2558 40.1866 37.6982 40.1359 37.1069 40.1359C35.637 40.1359 34.505 40.609 33.7279 41.5213C32.9507 42.4506 32.5452 43.8022 32.5452 45.593C32.5452 46.3871 32.6297 47.1136 32.8155 47.7725C33.0014 48.4314 33.2717 49.0059 33.6603 49.462C34.0489 49.9351 34.5388 50.3068 35.147 50.5602C35.7553 50.8136 36.4818 50.9488 37.3603 50.9488C38.053 50.9488 38.695 50.8812 39.2526 50.746C39.8101 50.6109 40.2663 50.4757 40.5873 50.3237L40.959 52.52C40.8069 52.6214 40.5873 52.7228 40.317 52.7904C40.0298 52.8748 39.7087 52.9424 39.3539 53.01C38.9991 53.0776 38.6106 53.1283 38.2051 53.1789C37.7827 53.2465 37.3772 53.2803 37.0055 53.2803Z" fill="#7F6B47"/>
    <path d="M54.7792 45.5593C54.7792 46.725 54.6102 47.7725 54.2723 48.7186C53.9344 49.6648 53.4614 50.4757 52.8532 51.1684C52.2449 51.8442 51.5015 52.368 50.6568 52.7397C49.7951 53.1114 48.8828 53.2972 47.886 53.2972C46.8892 53.2972 45.943 53.1114 45.0983 52.7397C44.2535 52.368 43.5102 51.8442 42.9019 51.1684C42.2937 50.4757 41.8037 49.6648 41.4658 48.7186C41.1279 47.7725 40.959 46.725 40.959 45.5593C40.959 44.4104 41.1279 43.346 41.4658 42.3999C41.8037 41.4537 42.2768 40.6259 42.9019 39.9501C43.5102 39.2743 44.2535 38.7505 45.0983 38.3788C45.943 38.0071 46.8723 37.8213 47.886 37.8213C48.8828 37.8213 49.812 38.0071 50.6568 38.3788C51.5015 38.7505 52.2449 39.2743 52.8532 39.9501C53.4614 40.6428 53.9344 41.4537 54.2723 42.3999C54.6102 43.346 54.7792 44.4104 54.7792 45.5593ZM52.0422 45.5593C52.0422 43.8866 51.6705 42.5688 50.9271 41.5889C50.1837 40.609 49.17 40.119 47.886 40.119C46.5851 40.119 45.5714 40.609 44.828 41.5889C44.0846 42.5688 43.7129 43.8866 43.7129 45.5593C43.7129 47.215 44.0846 48.5328 44.828 49.5127C45.5714 50.4926 46.5851 50.9657 47.886 50.9657C49.17 50.9657 50.1837 50.4757 50.9271 49.5127C51.6536 48.5328 52.0422 47.215 52.0422 45.5593Z" fill="#7F6B47"/>
    <path d="M65.4574 47.3501C65.2546 46.8602 64.9505 46.4547 64.5619 46.1168C64.1734 45.7789 63.7003 45.4748 63.1596 45.2213C62.619 44.9679 61.977 44.6976 61.2843 44.4442C60.7605 44.2583 60.3044 44.0725 59.9327 43.9035C59.561 43.7346 59.24 43.5487 58.9866 43.346C58.7331 43.1432 58.5304 42.9236 58.4121 42.6871C58.2939 42.4336 58.2263 42.1633 58.2263 41.8423C58.2263 41.2172 58.4966 40.761 59.0541 40.4738C59.5948 40.1866 60.2537 40.0345 60.9802 40.0345C61.8249 40.0345 62.5514 40.119 63.1596 40.2711C63.751 40.4231 64.1903 40.5752 64.4606 40.7272C63.7003 39.5784 63.2103 38.5816 62.9231 37.9902C62.6866 37.9564 62.467 37.9227 62.2135 37.8889C61.7911 37.8382 61.3857 37.8213 60.9633 37.8213C59.2907 37.8213 57.9728 38.2099 57.0098 38.9702C56.0468 39.7304 55.5568 40.7779 55.5568 42.0788C55.5568 42.7378 55.6751 43.2953 55.8948 43.7515C56.1313 44.2076 56.4354 44.5962 56.8071 44.9172C57.1788 45.2382 57.6349 45.5086 58.1418 45.7451C58.6655 45.9816 59.2062 46.2182 59.7806 46.4378C60.9464 46.9109 61.7912 47.3332 62.298 47.7049C62.8049 48.0766 63.0583 48.6004 63.0583 49.2424C63.0583 49.8675 62.788 50.3068 62.2811 50.594C61.7574 50.8812 60.9633 51.0164 59.8989 51.0164C58.8007 51.0164 57.9222 50.8981 57.2633 50.6785C56.6044 50.4588 56.1144 50.273 55.8103 50.1547L55.3203 52.4355C55.5906 52.5369 56.0806 52.7059 56.824 52.9255C57.5505 53.1452 58.5811 53.2634 59.8989 53.2634C61.7574 53.2634 63.2103 52.9086 64.224 52.2159C65.2378 51.5063 65.7446 50.4757 65.7446 49.1241C65.7615 48.4314 65.6601 47.8401 65.4574 47.3501Z" fill="#7F6B47"/>
    <path d="M79.3948 12.8842C78.8372 12.3773 78.3304 11.938 77.8574 11.5325C77.0126 10.8061 76.1509 10.0965 75.3062 9.40376L74.1404 8.45763C73.5829 8.00146 73.0253 7.5453 72.4678 7.08913C71.792 6.53159 71.0317 5.87268 70.2546 5.16309L68.8691 6.36264C69.4098 6.90328 69.9842 7.46082 70.6262 8.03525C71.1162 8.47452 71.6061 8.9138 72.1637 9.38686C73.0929 10.1809 74.0728 10.9581 75.019 11.7353C75.2386 11.9042 75.4413 12.0732 75.661 12.259L75.8975 12.4449C76.4551 12.901 77.0126 13.3572 77.5701 13.8134C79.1245 15.1143 81.1181 16.8545 82.7569 18.7805C83.4158 19.5408 84.0072 20.3349 84.514 21.129C85.1391 22.1089 85.6291 23.0719 86.0008 24.0687C86.288 24.8459 86.5245 25.6569 86.6766 26.5185C86.7949 27.2788 86.8117 28.0053 86.8117 28.7318V28.8669C86.8117 29.019 86.8118 29.171 86.8286 29.3231C86.8455 29.6441 86.8624 30.0158 86.8286 30.4044C86.7611 31.1985 86.6259 31.9756 86.4232 32.8204C86.1022 34.1213 85.6122 35.3378 84.9533 36.5542C84.4802 37.3821 83.9396 38.1761 83.3483 38.9364C82.098 40.5076 80.5775 41.8931 79.1921 43.0588C79.6989 43.4305 80.2227 43.836 80.7464 44.2415C84.0747 41.1328 87.5214 36.5711 87.5214 28.8669C87.4707 21.2303 83.382 16.4997 79.3948 12.8842Z" fill="#F7A600"/>
    <path d="M85.9339 50.9826C85.6974 50.7123 84.3627 49.4114 83.0617 48.4484C82.5718 48.0936 78.4494 45.0693 77.6215 44.4611L77.0809 44.0556L76.101 43.346C75.4927 42.8899 74.9014 42.4506 74.3101 41.9944C72.5868 40.6766 70.4073 38.8857 68.6671 36.7232C68.0251 35.9291 67.5014 35.135 67.0452 34.3409C66.3863 33.1752 65.8794 31.908 65.5584 30.624C65.3557 29.8468 65.2205 29.0528 65.153 28.1911C65.1192 27.8025 65.136 27.4477 65.136 27.0929C65.136 26.9578 65.136 26.8057 65.136 26.6706C65.136 25.8427 65.1529 25.0993 65.2712 24.3052C65.4064 23.4943 65.626 22.6664 65.9301 21.8554C66.3018 20.8586 66.7918 19.8956 67.4169 18.8988C67.9237 18.1047 68.5151 17.3276 69.1571 16.5504C70.3566 15.1481 71.7252 13.8472 73.0261 12.6814C72.5023 12.259 72.0293 11.8536 71.5731 11.465C67.9069 14.9791 64.4434 19.5577 64.4434 26.6537C64.4603 35.0167 68.5658 39.6629 72.1475 42.7885C72.6375 43.2278 73.1612 43.6502 73.7357 44.1063C74.8676 45.0187 79.3279 48.3639 79.8348 48.7694C82.2846 50.7123 84.9202 52.5877 86.728 54.8685C87.1673 55.426 88.2824 56.6425 88.5358 57.8589L88.4682 56.7945C88.3837 54.7333 87.6741 53.0945 85.9339 50.9826Z" fill="#7F6B47"/>
    <path d="M70.0691 18.2737C69.8664 18.5102 69.6467 18.7298 69.444 18.9664C69.1905 19.2536 68.9709 19.5408 68.7344 19.8449H81.7267C81.1691 19.2874 80.5947 18.7467 80.0372 18.2737H70.0691Z" fill="#7F6B47"/>
    <path d="M66.7405 25.0317C66.7236 25.0993 66.7236 25.1669 66.7236 25.2344H84.7339C84.717 25.2175 84.7169 25.2175 84.7169 25.2007C84.5142 24.6431 84.2439 24.0856 83.9229 23.5449H67.1291C66.9771 24.018 66.8419 24.5248 66.7405 25.0317Z" fill="#7F6B47"/>
    <path d="M67.3155 31.0633L85.1905 31.0464C85.2581 30.6916 85.3087 30.3368 85.3425 29.982C85.3594 29.7286 85.3594 29.4752 85.3425 29.2386H66.8086C66.8424 29.4752 66.8931 29.7117 66.9606 29.9482C67.062 30.3368 67.1803 30.6916 67.3155 31.0633Z" fill="#7F6B47"/>
    <path d="M70.8466 36.6386H82.8928C82.9435 36.571 82.9942 36.5204 83.0449 36.4528C83.4166 35.9797 83.7545 35.4898 84.0586 34.9829H69.2754C69.7653 35.5573 70.306 36.1149 70.8466 36.6386Z" fill="#7F6B47"/>
    <path d="M82.0309 0.5C81.8957 0.753427 81.7436 0.989959 81.5916 1.22649C81.0678 2.02056 80.4765 2.81463 79.8176 3.57491C78.6181 4.96031 77.2665 6.24434 75.9824 7.37631C76.4555 7.7649 76.9454 8.17038 77.4354 8.59276C79.5304 6.59914 81.6254 4.58863 82.8756 1.32787" fill="#7F6B47"/>
    <path d="M66.1494 56.5749C67.8558 53.8379 71.8262 49.141 74.1408 47.215C74.6814 47.6711 75.2221 48.1273 75.7796 48.5497C73.8367 50.0872 70.2718 54.7164 69.7143 57.7575C69.7143 57.7575 68.9878 57.2169 68.3796 56.9635C67.7545 56.6931 66.2846 56.3552 66.1494 56.5749Z" fill="#F7A600"/>
    <path d="M70.441 62.0826C69.8328 61.3899 69.0894 60.8662 68.2447 60.5114C67.383 60.1397 66.4707 59.9539 65.4739 59.9539C64.4602 59.9539 63.5309 60.1397 62.6862 60.5114C61.8414 60.8831 61.098 61.4068 60.4898 62.0826C59.8816 62.7584 59.3916 63.5863 59.0537 64.5324C58.7158 65.4954 58.5469 66.5429 58.5469 67.6918C58.5469 68.8576 58.7158 69.922 59.0537 70.8512C59.3916 71.7973 59.8647 72.6083 60.4898 73.301C61.098 73.9768 61.8245 74.5174 62.6862 74.8722C63.5309 75.2439 64.4602 75.4298 65.4739 75.4298C66.4707 75.4298 67.3999 75.2439 68.2447 74.8722C69.1063 74.5005 69.8328 73.9768 70.441 73.301C71.0492 72.6252 71.5223 71.7973 71.8602 70.8512C72.1981 69.9051 72.3671 68.8576 72.3671 67.6918C72.3671 66.5429 72.1981 65.4785 71.8602 64.5324C71.5392 63.5863 71.0661 62.7753 70.441 62.0826ZM68.515 71.6622C67.7716 72.6421 66.7579 73.132 65.4739 73.132C64.1898 73.132 63.1592 72.6421 62.4158 71.6622C61.6725 70.6822 61.3008 69.3644 61.3008 67.7087C61.3008 66.0361 61.6725 64.7183 62.4158 63.7383C63.1592 62.7584 64.173 62.2854 65.4739 62.2854C66.7579 62.2854 67.7716 62.7753 68.515 63.7383C69.2584 64.7183 69.6301 66.0361 69.6301 67.7087C69.6301 69.3644 69.2584 70.6822 68.515 71.6622Z" fill="#F7A600"/>
    <path d="M91.0533 62.1333C90.4957 61.4575 89.803 60.9169 88.9751 60.5452C88.1473 60.1566 87.2012 59.9708 86.1537 59.9708C85.3089 59.9708 84.5486 60.089 83.8897 60.3087C83.2308 60.5452 82.7408 60.7479 82.4198 60.9507V54.6319C82.3522 54.3954 80.6796 52.9424 79.7842 52.52V74.6188C80.3924 74.7878 81.1696 74.9736 82.1157 75.1426C83.0618 75.3115 84.1432 75.396 85.3596 75.396C86.4916 75.396 87.5221 75.2102 88.4345 74.8554C89.3468 74.5006 90.124 73.9937 90.766 73.3179C91.408 72.659 91.898 71.848 92.2528 70.9019C92.6076 69.9558 92.7765 68.8745 92.7765 67.6918C92.7765 66.5598 92.6245 65.5124 92.3373 64.5662C92.0501 63.637 91.6108 62.826 91.0533 62.1333ZM88.7555 71.6791C87.9107 72.6252 86.7788 73.0814 85.3427 73.0814C84.6331 73.0814 84.0249 73.0476 83.5518 72.98C83.0619 72.9124 82.6901 72.8448 82.4198 72.7604V63.4174C82.7408 63.1639 83.2139 62.9105 83.8052 62.6571C84.4135 62.4037 85.0723 62.2854 85.7988 62.2854C86.5591 62.2854 87.2012 62.4206 87.7418 62.7078C88.2825 62.9781 88.7217 63.3667 89.0596 63.8397C89.3975 64.3128 89.651 64.8872 89.7861 65.563C89.9382 66.222 90.0058 66.9315 90.0058 67.6918C90.0227 69.4151 89.6002 70.7498 88.7555 71.6791Z" fill="#F7A600"/>
    <path d="M95.7835 55.2401C95.3105 55.2401 94.905 55.3922 94.584 55.6963C94.2461 56.0004 94.0771 56.4228 94.0771 56.9634C94.0771 57.4872 94.2461 57.9096 94.584 58.2306C94.9219 58.5347 95.3105 58.7036 95.7835 58.7036C96.2566 58.7036 96.6621 58.5516 96.9831 58.2306C97.321 57.9096 97.4899 57.5041 97.4899 56.9634C97.4899 56.4228 97.321 56.0004 96.9831 55.6963C96.6452 55.3922 96.2397 55.2401 95.7835 55.2401Z" fill="#F7A600"/>
    <path d="M97.118 60.3256H94.4824V75.075H97.118V60.3256Z" fill="#F7A600"/>
    <path d="M110.718 62.0826C110.11 61.3899 109.367 60.8662 108.522 60.5114C107.66 60.1397 106.748 59.9539 105.751 59.9539C104.737 59.9539 103.808 60.1397 102.963 60.5114C102.119 60.8831 101.375 61.4068 100.767 62.0826C100.159 62.7584 99.669 63.5863 99.3311 64.5324C98.9931 65.4954 98.8242 66.5429 98.8242 67.6918C98.8242 68.8576 98.9931 69.922 99.3311 70.8512C99.669 71.7973 100.142 72.6083 100.767 73.301C101.375 73.9768 102.119 74.5174 102.963 74.8722C103.808 75.2439 104.737 75.4298 105.751 75.4298C106.748 75.4298 107.677 75.2439 108.522 74.8722C109.384 74.5005 110.11 73.9768 110.718 73.301C111.327 72.6252 111.817 71.7973 112.138 70.8512C112.475 69.9051 112.644 68.8576 112.644 67.6918C112.644 66.5429 112.475 65.4785 112.138 64.5324C111.8 63.5863 111.327 62.7753 110.718 62.0826ZM108.792 71.6622C108.049 72.6421 107.035 73.132 105.751 73.132C104.45 73.132 103.437 72.6421 102.693 71.6622C101.95 70.6822 101.578 69.3644 101.578 67.7087C101.578 66.0361 101.95 64.7183 102.693 63.7383C103.437 62.7584 104.45 62.2854 105.751 62.2854C107.035 62.2854 108.049 62.7753 108.792 63.7383C109.536 64.7183 109.907 66.0361 109.907 67.7087C109.907 69.3644 109.536 70.6822 108.792 71.6622Z" fill="#F7A600"/>
    <path d="M73.8701 55.6287V71.206C73.8701 72.6083 74.208 73.6389 74.8838 74.2978C75.5596 74.9567 76.7254 75.3115 78.3473 75.3453L78.7021 73.1489C78.2966 73.0982 77.9418 73.0306 77.6546 72.9293C77.3674 72.8448 77.1478 72.7096 76.9788 72.5407C76.8099 72.3717 76.6916 72.1352 76.6071 71.8649C76.5226 71.5777 76.4888 71.2229 76.4888 70.7836V52.5369C76.5057 52.5538 74.4614 53.9561 73.8701 55.6287Z" fill="#F7A600"/>
    <path d="M114.334 55.6287V71.206C114.334 72.6083 114.672 73.6389 115.348 74.2978C116.024 74.9567 117.189 75.3115 118.811 75.3453L119.166 73.1489C118.744 73.0982 118.406 73.0306 118.118 72.9293C117.831 72.8448 117.612 72.7096 117.443 72.5407C117.274 72.3717 117.139 72.1352 117.071 71.8649C116.987 71.5777 116.953 71.2229 116.953 70.7836V52.5369C116.97 52.5538 114.925 53.9561 114.334 55.6287Z" fill="#F7A600"/>
    <path d="M56.8066 64.0594C56.6714 63.2315 56.3842 62.505 55.9787 61.9137C55.6746 61.4744 55.2691 61.1196 54.796 60.8324C54.6271 60.731 54.4919 60.6128 54.3061 60.5283C53.5965 60.2073 52.6673 60.0383 51.5353 60.0383C50.944 60.0383 50.3864 60.1059 49.8795 60.2242C49.3727 60.3424 48.8996 60.4945 48.4942 60.6466C48.0718 60.8155 47.717 60.9676 47.4467 61.1534C47.1595 61.3224 46.9567 61.4575 46.8215 61.542C46.3823 61.052 45.8416 60.6804 45.1996 60.4269C44.5576 60.1735 43.7635 60.0383 42.8174 60.0383C41.5165 60.0383 40.3676 60.1228 39.3708 60.2918C38.374 60.4607 37.5799 60.6128 36.9717 60.7817V75.0919H39.6073V62.6402C39.6918 62.6233 39.8439 62.5895 40.0635 62.5557C40.2831 62.5219 40.5366 62.4881 40.8069 62.4543C41.0772 62.4374 41.3644 62.4036 41.6685 62.3867C41.9726 62.3699 42.2598 62.353 42.5133 62.353C43.1384 62.353 43.6622 62.4543 44.0676 62.6571C44.4731 62.8598 44.7941 63.1639 45.0307 63.5863C45.2672 64.0087 45.4361 64.5324 45.5206 65.1407C45.622 65.7658 45.6727 66.5092 45.6727 67.3708V75.075H48.3083V66.7964C48.3083 66.1544 48.2745 65.5292 48.19 64.9548C48.1225 64.3635 48.0042 63.8397 47.8353 63.3498C48.0549 63.1639 48.4435 62.9443 49.0179 62.7078C49.5923 62.4712 50.3188 62.353 51.2143 62.353C51.8563 62.353 52.38 62.4543 52.7855 62.6571C53.191 62.8598 53.512 63.1639 53.7316 63.5694C53.7316 63.5694 53.7316 63.5694 53.7485 63.5863C53.9006 63.8566 54.002 64.1945 54.1033 64.5493C54.154 64.7352 54.2047 64.9379 54.2216 65.1407C54.3061 65.7658 54.3399 66.5092 54.3399 67.3708V75.075H56.9755V66.7964C57.0093 65.7996 56.9417 64.8872 56.8066 64.0594Z" fill="#F7A600"/>
</svg>
