<svg width="120" height="47" viewBox="0 0 120 47" fill="none" xmlns="http://www.w3.org/2000/svg">
    <path d="M53.9788 13.5552C53.6716 13.5552 53.4454 13.7976 53.4454 14.1209C53.4454 14.1209 53.4454 32.3372 53.4454 32.5635C53.2352 32.5635 0.833008 32.5312 0.833008 32.5312V33.6788L53.9788 33.695L54.3344 33.5333L54.496 33.1292C54.496 33.1292 54.496 14.9129 54.496 14.6866C54.6899 14.6866 61.7696 14.6866 61.9636 14.6866C61.9636 14.9129 61.9636 33.1292 61.9636 33.1292L62.109 33.5333L62.4808 33.7111H119.134V32.5797C119.134 32.5797 63.2243 32.5797 63.0142 32.5797C63.0142 32.3695 63.0142 14.1209 63.0142 14.1209C63.0142 13.7976 62.7717 13.5552 62.4808 13.5552H53.9788Z" fill="#009640"/>
    <path d="M52.7344 5.79665C52.7344 8.80307 55.2882 11.2438 58.4401 11.2438C61.592 11.2438 64.1458 8.80307 64.1458 5.79665C64.1458 2.77407 61.5758 0.333374 58.4401 0.333374C55.2882 0.333374 52.7344 2.77407 52.7344 5.79665ZM53.8012 5.79665C53.8012 3.42061 55.8863 1.46482 58.4401 1.46482C60.9939 1.46482 63.079 3.42061 63.079 5.79665C63.079 8.17269 61.0101 10.1123 58.4401 10.1123C55.8701 10.1123 53.8012 8.17269 53.8012 5.79665Z" fill="#009640"/>
    <path d="M14.3616 29.7834C13.3756 29.347 12.4381 28.7004 11.3229 27.666C9.67418 26.1951 8.21945 24.708 7.16882 23.3503C7.16882 23.3503 8.07399 23.3018 8.54273 23.221C9.18927 23.1079 9.72265 22.9947 10.3207 22.7361C11.2097 22.332 11.6461 21.9602 12.0825 21.3622C12.519 20.7641 12.7614 19.956 12.7614 19.3094C12.7614 18.178 12.1472 17.192 11.0966 16.4162C10.1106 15.6888 8.36493 15.2362 7.0072 15.1554C5.98889 15.0907 5.03524 15.1231 5.03524 15.1231H3.30573C3.01479 15.1231 2.95013 15.1231 2.77233 15.1231H0.929688C1.23679 15.2685 1.4146 15.5595 1.49542 15.9474L1.54391 16.3353V29.0075L1.49542 29.3955C1.43077 29.7349 1.28529 29.9774 1.059 30.1228L0.929688 30.2036H1.88333H2.67535H3.9846L3.85529 30.1228C3.53201 29.8804 3.38656 29.5086 3.3704 29.0075V23.6897H4.59882L4.79277 23.9322C5.48781 24.7889 6.19901 25.4839 6.94253 26.2436C8.47807 27.8761 10.353 29.0884 12.7776 30.0905L13.6019 30.2845H15.6062C15.6224 30.2521 14.5071 29.8642 14.3616 29.7834ZM3.41889 21.7824C3.41889 21.7824 3.41889 17.3051 3.41889 16.9657C3.41889 16.6263 3.32189 16.4808 3.32189 16.4808C3.32189 16.4808 10.9188 15.7696 10.9188 19.2771C10.9188 22.5421 3.41889 21.7824 3.41889 21.7824Z" fill="black"/>
    <path d="M31.3018 30.1713H32.6757H32.5788C32.1262 29.8965 31.8029 29.5409 31.6089 29.1368L24.1899 14.5088L23.705 15.2038L23.3171 15.7372V15.7211L22.719 16.4807L22.7837 16.4969C22.8806 16.5292 22.9453 16.5616 22.9938 16.5939L23.0908 16.7717L23.1716 16.9172L23.3171 17.1596L17.0456 29.0237C16.7385 29.6217 16.3991 30.0743 16.2697 30.1551L16.2051 30.2036H18.2579L18.1609 30.1389C17.9831 29.9935 17.9346 29.7833 17.9346 29.6379C17.9346 29.6379 17.9669 29.4762 18.1285 29.2015C18.2579 28.9267 20.5208 24.7241 20.5208 24.7241H27.0185L29.346 29.153L29.4915 29.4601L29.5238 29.6379C29.5238 29.8803 29.4107 30.0904 29.1844 30.1874H29.1198H30.623H31.3018V30.1713ZM20.8279 23.9321L23.7696 18.0971L26.776 23.9321H20.8279Z" fill="black"/>
    <path d="M79.9695 30.1713H81.3434H81.2626C80.7938 29.8965 80.4706 29.5409 80.2766 29.1368L72.8414 14.5088L72.3564 15.2038L71.9524 15.7372V15.7211L71.3381 16.4807L71.419 16.4969C71.4998 16.5292 71.5806 16.5616 71.6291 16.5939L71.7099 16.7717L71.8069 16.9172L71.9362 17.1596L65.6647 29.0237C65.3576 29.6217 65.0182 30.0743 64.8889 30.1551L64.8242 30.2036H66.877L66.78 30.1389C66.6022 29.9935 66.5376 29.7833 66.5376 29.6379C66.5376 29.6379 66.5861 29.4762 66.7315 29.2015C66.877 28.9267 69.1237 24.7241 69.1237 24.7241H75.6215L77.9652 29.153L78.1107 29.4601L78.1268 29.6379C78.1268 29.8803 78.0137 30.0904 77.8036 30.1874H77.7389H79.2583H79.2421H79.9695V30.1713ZM69.4632 23.9321L72.4211 18.0971L75.4437 23.9321H69.4632Z" fill="black"/>
    <path d="M97.9439 15.1714L98.1056 15.2522C98.348 15.333 98.4935 15.527 98.542 15.7694C98.5581 15.8987 98.5582 15.9957 98.5582 16.0927L98.5905 26.9708L91.3007 20.5054L85.5627 15.5108C85.5627 15.4785 85.5303 15.333 85.5465 15.3169L85.6273 15.1876H82.9119H82.2168L82.33 15.2684C82.33 15.2684 82.4916 15.3492 82.7017 15.5108C82.928 15.6563 83.3321 16.1089 83.3321 16.1089V29.2498V29.5731C83.3321 29.8156 83.1866 29.9934 82.8957 30.1065L82.734 30.1712H85.2394C84.8999 30.1065 84.706 29.8964 84.6413 29.5731C84.609 29.46 84.609 29.3468 84.609 29.2498V16.7069H84.6252L99.9644 30.2681L99.9482 16.125C99.9482 16.0442 99.9482 15.9472 99.9806 15.8341C100.029 15.4947 100.223 15.3007 100.579 15.2199H97.9439V15.1714Z" fill="black"/>
    <path d="M110.81 15.1714V15.1876H110.099V15.1714H101.823L102.082 16.9494H102.163L102.308 16.8039C102.551 16.5615 102.858 16.4483 103.213 16.4483H109.404V28.9427L109.372 29.3791C109.307 29.6862 109.161 29.9287 108.903 30.1065L108.79 30.1873H112.152C111.812 30.058 111.635 29.7832 111.57 29.3791L111.538 28.9427V16.4483H117.712C118.068 16.4483 118.359 16.5615 118.617 16.8039L118.763 16.9494H118.843L119.118 15.1714H110.81Z" fill="black"/>
    <path d="M48.532 17.0788C46.8025 15.915 44.3779 15.2846 41.2422 15.22H39.5774H35.7789H34.1949H33.3867C33.71 15.3816 33.904 15.6402 33.9686 16.0443L34.0171 16.4484V29.0075L33.9686 29.3954C33.9201 29.7187 33.7585 29.945 33.516 30.1066L33.3867 30.1874H34.7121H35.4233H40.2239H41.8564C43.4566 30.2036 44.8952 29.9935 46.2044 29.557C47.7884 29.0236 49.1138 28.0862 50.1806 26.7446C51.2313 25.4353 51.7485 24.0776 51.7647 22.6229C51.7485 20.3761 50.6817 18.5173 48.532 17.0788ZM48.9037 25.2252C48.2249 26.4375 47.1904 27.3911 45.865 28.07C44.4587 28.7812 42.907 29.1368 41.2584 29.1368H39.642H36.1345V16.1736H38.9631L41.0159 16.1898C42.3737 16.2383 43.6182 16.4484 44.7335 16.8363C46.2206 17.3536 47.4167 18.1456 48.3057 19.1962C49.1785 20.2307 49.6311 21.3621 49.6311 22.639C49.6311 23.528 49.3886 24.3847 48.9037 25.2252Z" fill="black"/>
    <path d="M8.28376 46.5127H7.75036L1.51124 39.6109V46.5127H0.880859V38.6249H1.43041L7.65339 45.5267V38.6249H8.29992V46.5127H8.28376Z" fill="black"/>
    <path d="M18.4828 38.6251V42.9246C18.4828 45.64 16.7048 46.6098 15.0399 46.6098C13.1811 46.6098 11.6133 45.4299 11.6133 43.0539V38.6089H12.2598V43.0377C12.2598 45.1066 13.5852 46.0441 15.0561 46.0441C16.4462 46.0441 17.8686 45.2036 17.8686 42.9569V38.6089H18.4828V38.6251Z" fill="black"/>
    <path d="M27.6964 39.1261H24.6092V46.5129H23.9788V39.1261H20.8916V38.6089H27.6964V39.1261Z" fill="black"/>
    <path d="M32.4162 38.6249C34.4205 38.6249 35.1317 39.6109 35.1317 40.6615C35.1317 41.5828 34.6145 42.2132 33.5639 42.585C33.9518 42.7789 34.2751 43.2315 34.663 43.7811L36.5218 46.5127H35.7783L34.3397 44.3468C33.3537 42.8597 33.0466 42.7304 32.0445 42.7304H30.9454V46.5127H30.2988V38.6249H32.4162ZM30.9454 42.2294H32.3031C33.7417 42.2294 34.4367 41.6313 34.4367 40.6777C34.4367 39.7887 33.774 39.1421 32.2708 39.1421H30.9292V42.2294H30.9454Z" fill="black"/>
    <path d="M45.8479 46.5128H45.1852L43.8921 43.7811H39.8835L38.5904 46.5128H37.9277L41.7262 38.5603H42.0818L45.8479 46.5128ZM41.8716 39.5624L40.1098 43.2801H43.6335L41.8716 39.5624Z" fill="black"/>
    <path d="M54.6899 39.8534C53.6716 39.3361 52.7341 39.0937 51.7642 39.0937C49.7115 39.0937 48.1759 40.5807 48.1759 42.585C48.1759 44.6216 49.7115 46.0602 51.8451 46.0602C52.7664 46.0602 53.6554 45.8177 54.7707 45.252V45.8824C53.817 46.3673 52.8149 46.6259 51.8612 46.6259C49.3559 46.6259 47.4971 44.8964 47.4971 42.585C47.4971 40.1605 49.5498 38.528 51.8127 38.528C52.7341 38.528 53.7039 38.7542 54.706 39.1907V39.8534H54.6899Z" fill="black"/>
    <path d="M62.1082 39.126H58.2612V42.294H62.0112V42.8112H58.2612V46.0116H62.2051V46.5127H57.6309V38.6249H62.1082V39.126Z" fill="black"/>
    <path d="M71.8226 38.6251V42.9246C71.8226 45.64 70.0446 46.6098 68.3798 46.6098C66.521 46.6098 64.9531 45.4299 64.9531 43.0539V38.6089H65.5835V43.0377C65.5835 45.1066 66.9089 46.0441 68.3798 46.0441C69.7699 46.0441 71.1923 45.2036 71.1923 42.9569V38.6089H71.8226V38.6251Z" fill="black"/>
    <path d="M81.0359 39.1261H77.9486V46.5129H77.3021V39.1261H74.2148V38.6089H81.0197V39.1261H81.0359Z" fill="black"/>
    <path d="M84.2691 46.5127H83.6387V38.6249H84.2691V46.5127Z" fill="black"/>
    <path d="M94.597 39.8534C93.5787 39.3361 92.6413 39.0937 91.6714 39.0937C89.6187 39.0937 88.0831 40.5807 88.0831 42.585C88.0831 44.6216 89.6187 46.0602 91.7523 46.0602C92.6736 46.0602 93.5626 45.8177 94.6779 45.252V45.8824C93.7242 46.3673 92.7221 46.6259 91.7684 46.6259C89.2631 46.6259 87.4043 44.8964 87.4043 42.585C87.4043 40.1605 89.457 38.528 91.7199 38.528C92.6413 38.528 93.6111 38.7542 94.6132 39.1907V39.8534H94.597Z" fill="black"/>
    <path d="M105.088 46.5128H104.425L103.132 43.7811H99.1238L97.8307 46.5128H97.168L100.966 38.5603H101.322L105.088 46.5128ZM101.128 39.5624L99.3662 43.2801H102.89L101.128 39.5624Z" fill="black"/>
    <path d="M108.336 46.0116H112.393V46.5127H107.706V38.6249H108.336V46.0116Z" fill="black"/>
    <path d="M118.826 39.6917C117.986 39.223 117.549 39.0937 116.984 39.0937C115.998 39.0937 115.254 39.7402 115.254 40.5969C115.254 42.6981 119.166 41.696 119.166 44.46C119.166 45.6722 118.115 46.6259 116.79 46.6259C116.111 46.6259 115.399 46.3996 114.688 45.9309V45.2197C115.61 45.85 116.127 46.0602 116.757 46.0602C117.727 46.0602 118.487 45.3813 118.487 44.4923C118.487 42.2456 114.575 43.2315 114.575 40.6292C114.575 39.4654 115.642 38.528 116.935 38.528C117.565 38.528 118.196 38.6896 118.842 39.029V39.6917H118.826Z" fill="black"/>
</svg>
