<svg width="120" height="50" viewBox="0 0 120 50" fill="none" xmlns="http://www.w3.org/2000/svg">
    <path d="M0.833008 15.723V14.5209H6.31767V15.4976C6.31767 17.0503 6.81856 18.6657 9.46072 18.6657C11.5519 18.6657 12.3408 17.0253 12.3408 15.2722V0.333374H17.9882V15.3598C17.9882 19.8678 14.8201 23.3239 9.54836 23.3239C4.16388 23.3364 0.833008 21.2452 0.833008 15.723Z" fill="#20476C"/>
    <path d="M21.5449 17.7891V6.28137H26.7791V16.0235C26.7791 17.739 27.4428 19.1666 29.3461 19.1666C30.9365 19.1666 32.0384 18.027 32.0384 15.6729V6.28137H37.2726V22.9607H32.1636V20.6817H32.0634C30.8613 22.4223 29.0832 23.3114 27.017 23.3114C24.0493 23.2988 21.5449 21.4957 21.5449 17.7891Z" fill="#20476C"/>
    <path d="M40.666 18.6657V0.333374H45.9253V17.6138C45.9253 18.3401 46.1507 18.8785 47.2276 18.8785C47.741 18.8785 48.1417 18.8159 48.7552 18.7533V22.7228C47.8036 23.0108 46.5388 23.2612 45.3868 23.2612C41.8681 23.2738 40.666 20.9196 40.666 18.6657Z" fill="#20476C"/>
    <path d="M51.1592 6.26878H56.2932V8.27232H56.3308C57.5955 6.71959 59.4363 5.93066 61.0266 5.93066C64.7706 5.93066 67.2124 8.24725 67.2124 12.1166V17.1629C67.2124 21.0323 64.2322 23.3739 60.5507 23.3739C58.9354 23.3739 57.3451 22.5474 56.4936 21.4705H56.3934V28.9587H51.1592V6.26878ZM61.9407 16.7998V12.6801C61.9407 10.9395 60.701 9.98783 59.2109 9.98783C57.871 9.98783 56.3809 10.6891 56.3809 13.0057V16.8374C56.3809 18.6781 57.8334 19.5046 59.2359 19.5046C60.5507 19.492 61.9407 18.7407 61.9407 16.7998Z" fill="#20476C"/>
    <path d="M70.1172 0.345947H75.3514V8.46025H75.4516C76.6537 6.71968 78.3692 5.91827 80.3602 5.91827C83.3405 5.91827 85.8449 7.69641 85.8449 11.4029V22.9482H80.6107V13.2186C80.6107 11.5031 79.972 10.0756 78.0436 10.0756C76.4909 10.0756 75.3514 11.2151 75.3514 13.5317V22.9482H70.1172V0.345947Z" fill="#20476C"/>
    <path d="M88.3496 18.4151C88.3496 14.4832 92.4693 13.0307 95.8378 13.0307H98.7304V11.7284C98.7304 10.3635 97.8163 9.63722 96.1258 9.63722C94.4478 9.63722 93.6589 10.4261 93.6589 11.3152V11.791H89.0007V11.1899C89.0007 7.57107 92.6196 5.93066 96.4263 5.93066C100.271 5.93066 103.977 7.45837 103.977 11.6658V19.2792C103.977 20.5439 104.14 22.6476 104.265 22.9606H99.2813C99.2438 22.8354 99.1185 21.2201 99.0935 21.0949H98.9683C97.5783 22.9607 95.5748 23.3113 93.8969 23.3113C90.6662 23.2987 88.3496 21.5582 88.3496 18.4151ZM98.7304 16.9V15.9483H96.2259C94.6983 15.9483 93.5963 16.3866 93.5963 17.7515C93.5963 18.8284 94.2976 19.5547 95.9129 19.5547C97.8413 19.5547 98.7304 18.4778 98.7304 16.9Z" fill="#20476C"/>
    <path d="M107.283 6.26886H112.417V9.02368H112.442C113.331 7.40834 115.46 5.98083 117.514 5.98083C117.989 5.98083 118.653 6.01841 119.166 6.14363V10.6516C118.378 10.5264 117.426 10.4637 116.95 10.4637C114.759 10.4637 112.505 11.3778 112.505 14.2704V22.9607H107.271V6.26886H107.283Z" fill="#20476C"/>
    <path d="M8.89691 38.5131V38.5631C10.074 38.8762 10.7502 40.0157 10.7502 41.2303C10.7502 43.8224 8.4336 45.3125 5.97928 45.3125H0.882812L3.16181 32.3898H8.18317C9.87364 32.3898 11.4264 33.3665 11.4264 35.2949C11.4264 36.9603 10.5749 38.0873 8.89691 38.5131ZM6.70556 39.3896H3.63766L2.8613 43.8349H6.01686C7.66977 43.8349 8.93448 42.9834 8.93448 41.2554C8.93448 39.9531 7.82002 39.3896 6.70556 39.3896ZM7.61968 33.8423H4.61438L3.8881 37.9621H6.88086C8.42108 37.9621 9.59815 37.1482 9.59815 35.5328C9.59815 34.3557 8.65901 33.8423 7.61968 33.8423Z" fill="#0093C9"/>
    <path d="M19.5031 45.3001H17.9504L18.1508 44.123H18.1382C17.3368 45.0496 16.285 45.5255 15.2331 45.5255C13.6178 45.5255 12.3906 44.6364 12.3906 42.9083C12.3906 42.6704 12.4031 42.4576 12.4407 42.2322C12.616 41.293 12.7788 40.3539 12.9541 39.4022C13.3173 37.3486 14.8199 35.9336 16.9612 35.9336C17.7626 35.9336 18.9021 36.3719 19.3153 37.0981H19.3529L19.5282 36.1214H21.1435L19.5031 45.3001ZM16.6982 37.2734C15.4335 37.2734 14.7949 38.2001 14.5945 39.3772L14.1061 42.1571C14.0936 42.2823 14.0686 42.4075 14.0686 42.5452C14.0686 43.6472 14.8449 44.1731 15.8843 44.1731C17.149 44.1731 18.3135 42.9459 18.564 41.4683L18.9271 39.4147C18.9647 39.302 18.9647 39.2018 18.9647 39.0891C18.9647 37.887 17.7501 37.2734 16.6982 37.2734Z" fill="#0093C9"/>
    <path d="M30.4976 39.0516L29.3832 45.3126H27.7929L28.7946 39.565C28.8322 39.3521 28.8823 39.0015 28.8823 38.7886C28.8823 37.7869 28.4315 37.3361 27.4172 37.3361C25.9146 37.3361 24.8752 38.6383 24.6248 40.0158L23.6856 45.3126H22.0703L23.6982 36.134H25.2634L25.013 37.5113H25.0631C25.8394 36.5471 26.9164 35.9336 28.1811 35.9336C29.7088 35.9336 30.5728 36.7851 30.5728 38.3253C30.5728 38.5758 30.5352 38.8137 30.4976 39.0516Z" fill="#0093C9"/>
    <path d="M39.4258 45.1998C38.9499 47.8294 37.1718 49.0691 34.7801 49.0691C33.4903 49.0691 31.7873 48.5056 31.4492 47.0405L32.9519 46.5397C33.315 47.3661 34.1915 47.7418 35.0806 47.7418C36.4205 47.7418 37.585 46.74 37.8229 45.4252C37.8229 45.4252 37.9857 44.4986 38.0734 43.9601H38.0358C37.3095 44.7991 36.2827 45.2123 35.1683 45.2123C33.5404 45.2123 32.3258 44.436 32.3258 42.6954C32.3258 42.445 32.3383 42.182 32.3758 41.9566L32.8141 39.5023C33.1898 37.4236 34.8302 35.9711 36.9714 35.9711C37.8229 35.9711 38.8372 36.3843 39.2129 37.1982H39.288L39.4633 36.1714H41.0161L39.4258 45.1998ZM36.9464 37.2733C35.6817 37.2733 34.6924 38.1249 34.4795 39.3771L34.0288 41.8815C34.0162 42.0317 33.9912 42.1945 33.9912 42.2947C33.9912 43.3841 34.7675 43.885 35.7818 43.885C37.0466 43.885 38.2487 42.9208 38.4615 41.6686L38.8623 39.3896C38.8748 39.2643 38.8998 39.1141 38.8998 38.9889C38.8998 37.8744 37.9982 37.2733 36.9464 37.2733Z" fill="#0093C9"/>
    <path d="M43.9087 43.0962C43.8962 43.2089 43.8586 43.4217 43.8586 43.5344C43.8586 44.148 44.4346 44.1731 44.8854 44.1731C45.1985 44.1731 45.499 44.123 45.8121 44.0604L45.5992 45.2625C45.1985 45.4127 44.7101 45.5004 44.2718 45.5004C43.3327 45.5004 42.1807 45.1748 42.1807 44.0353C42.1807 43.7599 42.2307 43.259 42.2934 43.0085L44.1967 32.4023H45.8246L43.9087 43.0962Z" fill="#0093C9"/>
    <path d="M54.5647 45.3001H53.0119L53.2123 44.123H53.1998C52.3984 45.0496 51.3465 45.5255 50.2946 45.5255C48.6793 45.5255 47.4521 44.6364 47.4521 42.9083C47.4521 42.6704 47.4647 42.4576 47.5022 42.2322C47.6775 41.293 47.8403 40.3539 48.0156 39.4022C48.3788 37.3486 49.8814 35.9336 52.0227 35.9336C52.8241 35.9336 53.9636 36.3719 54.3768 37.0981H54.4144L54.5897 36.1214H56.205L54.5647 45.3001ZM51.7597 37.2734C50.495 37.2734 49.8564 38.2001 49.656 39.3772L49.1677 42.1571C49.1551 42.2823 49.1301 42.4075 49.1301 42.5452C49.1301 43.6472 49.9065 44.1731 50.9458 44.1731C52.2105 44.1731 53.3751 42.9459 53.6255 41.4683L53.9887 39.4147C54.0262 39.302 54.0262 39.2018 54.0262 39.0891C54.0262 37.887 52.8116 37.2734 51.7597 37.2734Z" fill="#0093C9"/>
    <path d="M64.4699 45.3H62.9172L63.1176 44.1229H63.105C62.3036 45.0496 61.2518 45.5254 60.1999 45.5254C58.5846 45.5254 57.3574 44.6363 57.3574 42.9083C57.3574 42.6704 57.3699 42.4575 57.4075 42.2321C57.5828 41.293 57.7456 40.3538 57.9209 39.4021C58.284 37.3485 59.649 35.9335 61.7777 35.9335C62.5916 35.9335 63.8564 36.3342 64.2445 37.0981H64.3197L65.1461 32.3647H66.7615L64.4699 45.3ZM61.665 37.2734C60.4003 37.2734 59.7616 38.2 59.5613 39.3771L59.0729 42.157C59.0604 42.2822 59.0354 42.4074 59.0354 42.5452C59.0354 43.6471 59.8117 44.173 60.8511 44.173C62.1158 44.173 63.3179 42.6704 63.5308 41.4683L63.8939 39.4147C63.9064 39.302 63.9315 39.2018 63.9315 39.0891C63.9315 37.887 62.7168 37.2734 61.665 37.2734Z" fill="#0093C9"/>
    <path d="M75.0888 41.1928H69.1033C69.0281 41.5685 68.9405 41.9691 68.9405 42.3573C68.9405 43.597 69.9172 44.2106 71.0567 44.2106C71.9458 44.2106 72.9851 43.5344 73.5736 42.9208L74.5378 43.86C73.511 45.0872 72.3089 45.5254 70.7186 45.5254C68.8653 45.5254 67.25 44.6364 67.25 42.6078C67.25 42.3573 67.2625 42.0944 67.3251 41.844L67.6632 39.9156C68.0765 37.5614 69.8045 35.921 72.2087 35.921C73.9368 35.921 75.4394 36.8602 75.4394 38.7134C75.4519 39.4648 75.214 40.4415 75.0888 41.1928ZM72.096 37.2734C70.6685 37.2734 69.5916 38.2125 69.3787 39.59L69.3036 40.0658H73.7489C73.8241 39.7027 73.8867 39.3395 73.8867 38.9764C73.8867 37.8745 73.1479 37.2734 72.096 37.2734Z" fill="#0093C9"/>
    <path d="M82.8769 38.0497C82.2383 37.4737 81.4118 37.2108 80.7607 37.2108C79.8716 37.2108 78.8573 37.4111 78.8573 38.4379C78.8573 40.1785 83.2275 39.4021 83.2275 42.3698C83.2275 44.6238 81.3617 45.4878 79.4083 45.4878C78.0308 45.4878 76.5407 45.0996 75.8145 43.8224L77.1042 42.9458C77.7053 43.7598 78.5693 44.198 79.5711 44.198C80.5854 44.198 81.5496 43.8474 81.5496 42.6203C81.5496 40.8046 77.1794 41.6185 77.1794 38.9012C77.1794 36.7975 78.9575 35.9084 80.8233 35.9084C82.0254 35.9084 83.0397 36.1088 83.9663 36.9979L82.8769 38.0497Z" fill="#0093C9"/>
    <path d="M93.1959 39.0515L92.0814 45.3125H90.4911L91.4929 39.5649C91.5305 39.352 91.5805 39.0014 91.5805 38.7886C91.5805 37.7868 91.1298 37.336 90.1155 37.336C88.6128 37.336 87.5735 38.6383 87.3231 40.0157L86.3839 45.3125H84.7686L87.0851 32.3898H88.6379L87.6987 37.5238H87.7488C88.5252 36.5596 89.6021 35.946 90.8668 35.946C92.3945 35.946 93.2585 36.7975 93.2585 38.3377C93.2585 38.5757 93.2335 38.8136 93.1959 39.0515Z" fill="#0093C9"/>
</svg>
