<svg width="120" height="35" viewBox="0 0 120 35" fill="none" xmlns="http://www.w3.org/2000/svg">
    <path d="M95.2408 21.7711C89.2164 27.2802 75.873 30.9133 64.2603 31.0586C52.172 31.2172 39.1325 27.518 32.9893 21.7711L33.0421 21.7183C38.2738 29.2487 50.5603 34.4275 64.7624 34.2822C78.5021 34.0972 90.2337 28.9845 95.4521 21.7183L95.2408 21.7711Z" fill="black"/>
    <path d="M7.67644 8.90341L11.587 1.53149L14.3613 8.90341H7.67644ZM14.7709 10.2113C15.8146 12.9196 16.8451 15.6411 17.7302 18.4155H19.7383C17.4792 12.3779 15.0747 6.39324 12.8949 0.25H10.5565C7.37259 6.49893 4.1094 12.4044 0.833008 18.4155H2.89396C4.25472 15.6676 5.62868 12.9196 7.06871 10.2113H14.7709Z" fill="black"/>
    <path d="M22.315 9.94711C22.8038 7.34449 24.6798 5.7063 27.4938 5.7063C30.0964 5.7063 31.4176 7.37091 31.4176 9.94711H22.315ZM33.1218 11.004V10.1321C33.1218 6.56504 30.9552 4.64941 27.256 4.64941C22.751 4.64941 20.4258 7.92581 20.4258 11.9552C20.4258 16.1168 22.7774 18.7062 27.005 18.7062C28.9867 18.7062 30.3342 18.4816 31.6686 18.1381L31.9328 16.6849C30.5853 17.1208 29.1584 17.504 27.7316 17.504C24.1778 17.504 22.1565 15.377 22.1565 12.0741C22.1565 11.6514 22.1829 11.3079 22.2225 11.004H33.1218Z" fill="black"/>
    <path d="M37.5336 7.27845L37.5864 7.22559C38.4848 5.50812 39.8455 4.64941 42.0122 4.64941C42.3953 4.64941 42.7652 4.70223 43.1748 4.82113L43.2276 6.23474C42.686 6.08942 42.1311 5.95732 41.5762 5.95732C39.5945 5.95732 37.8242 7.46339 37.5468 10.317C37.3222 12.6026 37.2826 15.007 37.2826 17.319V18.4023H35.499C35.7104 14.4521 35.9879 10.2378 35.9879 4.95325H37.6525L37.5336 7.27845Z" fill="black"/>
    <path d="M50.7849 5.86483C54.4973 5.86483 55.9637 8.00507 55.9637 11.3343C55.9637 14.6768 54.4048 17.5172 50.5074 17.5172C47.0593 17.5172 45.4079 15.1656 45.4079 12.1138C45.3947 8.22966 47.2839 5.86483 50.7849 5.86483ZM50.9831 4.64941C46.2402 4.64941 43.6904 7.688 43.6904 12.0345C43.6904 16.0507 46.2006 18.7062 50.5074 18.7062C56.0958 18.7062 57.6812 14.5446 57.6812 11.189C57.6812 7.18595 55.1842 4.64941 50.9831 4.64941Z" fill="black"/>
    <path d="M80.6552 0.25C80.5231 4.68899 80.4438 9.128 80.4438 13.567C80.4438 15.2052 80.4439 16.8169 80.4967 18.4155H78.6075C78.7131 13.4745 78.8981 8.77129 78.8981 1.96749H78.8321C76.3748 7.31805 73.825 12.8668 71.3941 18.4155H69.3596C67.444 12.8932 65.4094 7.41051 63.4145 2.07316H63.3485C62.8464 8.99587 62.2916 13.131 62.1726 18.4155H60.4023C61.1686 11.5588 61.5253 6.32718 61.9481 0.25H64.6299C65.5415 3.43392 67.7742 8.65239 70.4561 16.5395C72.9002 11.0833 75.6085 5.74589 77.8941 0.25H80.6552Z" fill="#BF1C1D"/>
    <path d="M92.942 18.4155C93.193 16.1036 93.2591 12.7743 93.4572 10.1321L93.3912 10.0924C91.4227 12.127 84.5924 11.6117 84.5924 15.2316C84.5924 17.1076 86.4817 17.6625 88.1067 17.6625C89.2296 17.6625 90.3129 17.4379 91.3434 17.0812L91.0396 18.4023C90.0223 18.6137 89.0315 18.7194 88.0142 18.7194C86.5345 18.7194 82.875 18.6533 82.875 15.3109C82.875 9.55076 93.4572 11.7703 93.4572 7.87297C93.4572 6.08945 91.2774 5.71952 89.8241 5.71952C88.0803 5.71952 86.3231 6.04979 84.7642 6.73678L84.9624 5.33639C86.5742 4.94005 88.2124 4.64941 89.5731 4.64941C93.4969 4.64941 95.1879 5.67988 95.1879 8.0579C95.1879 10.3435 94.7519 14.0426 94.7519 18.4023H92.942V18.4155Z" fill="#BF1C1D"/>
    <path d="M101.027 6.16862C100.948 9.0751 100.631 12.0476 100.631 14.9805C100.631 16.2884 100.948 17.5171 102.612 17.5171C103.339 17.5171 104.066 17.3321 104.779 17.1076L104.541 18.389C103.775 18.6004 102.969 18.7061 102.177 18.7061C99.7721 18.7061 98.9133 17.7813 98.9133 15.5222C98.9133 13.8311 99.2568 10.2377 99.3889 6.1554H97.6318L97.6979 4.95317H99.4946L99.6267 2.44303L101.172 2.13916L101.067 4.95317H105.123L105.07 6.1554H101.027V6.16862Z" fill="#BF1C1D"/>
    <path d="M108.36 9.94711C108.836 7.34449 110.725 5.7063 113.526 5.7063C116.141 5.7063 117.449 7.37091 117.449 9.94711H108.36ZM119.167 11.004V10.1321C119.167 6.56504 116.987 4.64941 113.314 4.64941C108.796 4.64941 106.471 7.92581 106.471 11.9552C106.471 16.1168 108.809 18.7062 113.05 18.7062C115.018 18.7062 116.392 18.4816 117.727 18.1381L117.964 16.6849C116.63 17.1208 115.203 17.504 113.763 17.504C110.223 17.504 108.201 15.377 108.201 12.0741C108.201 11.6514 108.215 11.3079 108.254 11.004H119.167Z" fill="#BF1C1D"/>
</svg>
