<svg width="120" height="96" viewBox="0 0 120 96" fill="none" xmlns="http://www.w3.org/2000/svg">
    <path d="M0.844857 0.666626H91.9755C111.9 0.666626 119.166 13.6921 119.166 31.6689C119.166 47.3659 119.166 95.6681 119.166 95.6681H25.3285C14.6065 95.6681 0.833008 82.6664 0.833008 67.3612C0.844882 52.056 0.844857 0.666626 0.844857 0.666626Z" fill="#ED1C24"/>
    <path d="M13.4419 26.5276L11.1384 31.5027H7.71875L14.9261 17.2661H18.6782L23.7126 31.5027H20.3999L18.7613 26.5276H13.4419ZM18.2033 24.2597L16.6121 19.4984L14.3561 24.2597H18.2033Z" fill="white"/>
    <path d="M26.9304 26.3495V26.6938C26.9304 27.6794 27.2154 28.4393 27.7972 28.9736C28.379 29.5198 29.1389 29.781 30.0888 29.781C30.6587 29.781 31.1812 29.7335 31.6561 29.6148C32.1311 29.5079 32.7604 29.3298 33.5084 29.0923L33.1404 31.3365C32.5823 31.4671 32.0361 31.5621 31.478 31.6333C30.92 31.7045 30.35 31.7402 29.792 31.7402C27.9872 31.7402 26.5742 31.3008 25.553 30.4341C24.5438 29.5673 24.0332 28.273 24.0332 26.5514C24.0332 25.0909 24.425 23.7254 25.2206 22.4787C26.0161 21.2319 27.4766 20.6145 29.6257 20.6145C31.0862 20.6145 32.2617 20.9945 33.1404 21.7425C34.019 22.5024 34.4583 23.6185 34.4583 25.0909C34.4583 25.2927 34.4465 25.5065 34.4108 25.7321C34.3871 25.9577 34.3515 26.1595 34.3277 26.3258H26.9304V26.3495ZM31.6918 24.9247C31.6918 24.0698 31.5255 23.4404 31.2049 23.0249C30.8843 22.6093 30.3263 22.4074 29.5545 22.4074C28.854 22.4074 28.2721 22.6449 27.8091 23.108C27.3579 23.5829 27.0729 24.1766 26.9779 24.9247H31.6918Z" fill="white"/>
    <path d="M39.0178 22.443C39.374 21.8493 39.7777 21.3981 40.2289 21.0894C40.6801 20.7807 41.2145 20.6263 41.8319 20.6263C42.105 20.6263 42.4018 20.662 42.7224 20.7332L42.8055 23.2504C42.39 23.0961 42.0219 23.013 41.6894 23.013C40.977 23.013 40.3952 23.2386 39.944 23.6779C39.5047 24.1172 39.2315 24.6159 39.1128 25.1621C39.0059 25.7083 38.9228 26.4088 38.8753 27.24C38.8278 28.083 38.8041 29.0567 38.8041 30.1609V31.4789H35.9307L36.3225 20.757H39.0772L39.0178 22.443Z" fill="white"/>
    <path d="M55.0712 26.017C55.0712 27.4418 54.6318 28.7479 53.7413 29.959C52.8627 31.1583 51.3547 31.7638 49.2293 31.7638C47.3176 31.7638 45.9284 31.2295 45.0379 30.149C44.1473 29.0804 43.708 27.8455 43.708 26.4682C43.708 24.6871 44.2423 23.2741 45.3229 22.2174C46.4034 21.1606 47.8163 20.6382 49.5736 20.6382C51.2359 20.6382 52.5658 21.1131 53.5751 22.0512C54.5724 22.9773 55.0712 24.3072 55.0712 26.017ZM46.6052 26.5275C46.6052 27.4299 46.8427 28.1661 47.3057 28.7717C47.7688 29.3654 48.4337 29.6741 49.2768 29.6741C50.2504 29.6741 50.9747 29.3179 51.4615 28.6054C51.9365 27.893 52.174 27.0144 52.174 25.9576C52.174 24.984 51.9602 24.2122 51.5328 23.6185C51.1053 23.0248 50.4404 22.728 49.538 22.728C48.5525 22.728 47.8163 23.0842 47.3295 23.8085C46.8427 24.5209 46.6052 25.4233 46.6052 26.5275Z" fill="white"/>
    <path d="M55.9619 17.2543H59.1084L63.1218 29.2942L65.3778 24.2954L62.9555 17.2543H65.9833L66.9926 20.7808L68.5837 17.2543H71.3977L68.2512 24.1291L69.9729 29.2111L75.316 17.2543H78.4388L71.6946 31.4908H67.9662L66.6839 27.3588L64.8553 31.5027H61.1032L55.9619 17.2543Z" fill="white"/>
    <path d="M82.4878 20.8876L82.096 31.5027H79.0088L79.4837 20.8876H82.4878ZM79.555 19.0947L79.6025 17.088H82.5828L82.4997 19.0947H79.555Z" fill="white"/>
    <path d="M88.0095 22.443C88.4369 21.8018 88.9831 21.3388 89.66 21.0538C90.3368 20.7688 91.1204 20.6263 91.9991 20.6263C93.1864 20.6263 94.1245 20.8876 94.8131 21.4219C95.5018 21.9443 95.8461 22.8111 95.8461 24.0103L95.5612 31.5027H92.4977C92.6402 30.4815 92.7471 29.4129 92.8421 28.3086C92.9371 27.2044 92.9846 26.207 92.9846 25.3046C92.9846 23.7847 92.2484 23.0248 90.7879 23.0248C90.0161 23.0248 89.3868 23.2861 88.9119 23.8085C88.437 24.3309 88.1282 24.9721 87.9858 25.7558C87.8433 26.5276 87.7364 27.4893 87.7008 28.6292C87.6533 29.7691 87.6296 30.7309 87.6296 31.5145H84.6611L85.2192 20.7926H88.1163L88.0095 22.443Z" fill="white"/>
    <path d="M98.7196 33.545C99.4795 33.8418 100.168 34.0674 100.786 34.2218C101.403 34.3761 102.044 34.4592 102.709 34.4592C104.086 34.4592 104.953 34.0674 105.298 33.2837C105.642 32.5001 105.808 31.3246 105.808 29.7573C105.393 30.3509 104.87 30.814 104.229 31.1346C103.6 31.4552 102.899 31.6096 102.139 31.6096C100.75 31.6096 99.6576 31.194 98.862 30.3509C98.0784 29.5079 97.6865 28.3799 97.6865 26.9551C97.6865 26.0883 97.8528 25.1859 98.209 24.2479C98.5533 23.3098 99.242 22.4668 100.275 21.7306C101.308 20.9945 102.745 20.6145 104.585 20.6145C105.274 20.6145 105.963 20.662 106.651 20.7451C107.34 20.8282 108.135 20.9588 109.038 21.1251L108.503 32.1795C108.503 33.7587 108.064 34.8867 107.185 35.5397C106.307 36.2047 105.06 36.5253 103.445 36.5253C102.673 36.5253 101.914 36.4778 101.177 36.3828C100.441 36.2878 99.6576 36.1334 98.8502 35.9078L98.7196 33.545ZM104.478 22.728C102.947 22.728 101.925 23.1555 101.391 24.0223C100.869 24.889 100.596 25.7914 100.596 26.7413C100.596 27.6081 100.809 28.2968 101.237 28.7955C101.664 29.2942 102.294 29.5435 103.113 29.5435C103.861 29.5435 104.466 29.2704 104.941 28.7242C105.416 28.1781 105.701 27.5725 105.82 26.8957C105.927 26.2308 106.01 25.5421 106.046 24.8534C106.093 24.1647 106.105 23.5117 106.105 22.8943C105.523 22.7755 104.977 22.728 104.478 22.728Z" fill="white"/>
    <path d="M9.2041 81.5979C22.7876 69.0949 38.7459 61.4126 51.2964 57.1143C70.2824 50.6194 89.3516 51.5455 106.331 56.4019C95.4666 55.0839 86.5613 54.5614 74.5095 59.0497C63.1463 63.2886 48.8029 74.5805 41.2394 86.3948C33.5096 68.5012 9.2041 81.5979 9.2041 81.5979Z" fill="white"/>
</svg>
