<svg width="120" height="57" viewBox="0 0 120 57" fill="none" xmlns="http://www.w3.org/2000/svg">
    <path d="M0.839469 54.5956C1.22175 54.8883 1.53235 55.0914 1.77127 55.2048C2.0102 55.3183 2.2551 55.3721 2.49999 55.3721C2.89422 55.3721 3.24066 55.2407 3.54529 54.9779C3.84992 54.7151 4.00522 54.3686 4.00522 53.9445C4.00522 53.6279 3.90368 53.3592 3.70656 53.1441C3.50348 52.9351 3.11522 52.726 2.53583 52.5229C1.40094 52.1108 0.833496 51.4896 0.833496 50.6653C0.833496 50.1337 1.03658 49.6797 1.43678 49.3034C1.84295 48.9271 2.32677 48.7419 2.88825 48.7419C3.34818 48.7419 3.82603 48.9032 4.32179 49.2317V50.1516C4.01119 49.8768 3.74837 49.6917 3.55126 49.5842C3.34818 49.4826 3.13314 49.4289 2.90617 49.4289C2.52986 49.4289 2.21328 49.5483 1.96839 49.7932C1.71752 50.0381 1.59208 50.3188 1.59208 50.6414C1.59208 50.9639 1.70557 51.2208 1.92658 51.4119C2.15355 51.5971 2.55973 51.8061 3.14509 52.0331C3.50348 52.1705 3.78421 52.3079 4.00522 52.4453C4.22025 52.5827 4.40542 52.7798 4.54877 53.0366C4.69213 53.2935 4.7638 53.5802 4.7638 53.9087C4.7638 54.5179 4.5428 55.0257 4.09482 55.4438C3.64683 55.8559 3.1212 56.065 2.51194 56.065C1.98033 56.065 1.41886 55.8679 0.833496 55.4796V54.5956H0.839469Z" fill="black"/>
    <path d="M6.22705 48.8555H6.90799V51.7703C7.07523 51.5135 7.27235 51.3164 7.49335 51.191C7.71436 51.0595 7.96523 50.9998 8.24596 50.9998C8.66408 50.9998 9.00455 51.1372 9.25542 51.4179C9.50629 51.6987 9.6377 52.0511 9.6377 52.4811V55.9635H8.95676V52.4811C8.95676 52.2124 8.87314 51.9973 8.71186 51.836C8.55059 51.6748 8.34751 51.5912 8.10261 51.5912C7.76811 51.5912 7.4814 51.7285 7.24845 52.0033C7.0155 52.2781 6.90201 52.6006 6.90201 52.959V55.9575H6.22705V48.8555Z" fill="black"/>
    <path d="M11.4896 51.4298C12.0391 51.1371 12.499 50.9938 12.8753 50.9938C13.4129 50.9938 13.8191 51.1431 14.0998 51.4358C14.3746 51.7344 14.512 52.1346 14.512 52.6424V55.2048C14.512 55.39 14.6076 55.4856 14.7927 55.4856C14.8883 55.4856 14.9839 55.4617 15.0854 55.4079V55.9574C14.9122 56.0291 14.739 56.0709 14.5598 56.0709C14.0939 56.0709 13.8549 55.8141 13.837 55.2884C13.6578 55.5453 13.4667 55.7424 13.2517 55.8738C13.0366 56.0052 12.8037 56.0709 12.5528 56.0709C12.1407 56.0709 11.8002 55.9276 11.5254 55.6468C11.2507 55.3661 11.1133 55.0197 11.1133 54.6135C11.1133 54.1834 11.2865 53.825 11.627 53.5383C11.9674 53.2516 12.7081 53.0605 13.843 52.9589V52.5408C13.843 52.266 13.7474 52.0391 13.5623 51.8599C13.3711 51.6807 13.1382 51.5911 12.8574 51.5911C12.4572 51.5911 12.0033 51.7822 11.5015 52.1585V51.4298H11.4896ZM13.831 53.4547C12.947 53.5562 12.3856 53.6996 12.1526 53.8848C11.9197 54.0699 11.8002 54.3029 11.8002 54.5896C11.8002 54.8464 11.8838 55.0615 12.057 55.2287C12.2303 55.396 12.4453 55.4796 12.7081 55.4796C13.0366 55.4796 13.3054 55.3482 13.5145 55.0913C13.7235 54.8345 13.831 54.5 13.831 54.0938V53.4547Z" fill="black"/>
    <path d="M19.3323 51.8003C19.4696 51.5255 19.6429 51.3284 19.8519 51.191C20.055 51.0596 20.2939 50.9879 20.5567 50.9879C20.945 50.9879 21.2496 51.1134 21.4706 51.3583C21.6857 51.6031 21.7992 51.9317 21.7992 52.3319V55.9516H21.1182V52.3259C21.1182 52.0929 21.0525 51.9137 20.9211 51.7764C20.7897 51.639 20.6284 51.5733 20.4313 51.5733C20.1446 51.5733 19.9057 51.7047 19.7026 51.9615C19.4995 52.2184 19.398 52.5111 19.398 52.8396V55.9575H18.723V52.3378C18.723 52.0929 18.6692 51.9018 18.5558 51.7823C18.4482 51.6569 18.281 51.5972 18.06 51.5972C17.7554 51.5972 17.5045 51.7226 17.3074 51.9795C17.1103 52.2363 17.0087 52.5588 17.0087 52.9471V55.9635H16.3457V51.1074H16.937L17.0087 51.7286C17.158 51.4837 17.3313 51.2985 17.5284 51.1791C17.7255 51.0536 17.9525 50.9939 18.2093 50.9939C18.4901 50.9939 18.729 51.0596 18.9201 51.197C19.0933 51.3284 19.2367 51.5315 19.3323 51.8003Z" fill="black"/>
    <path d="M26.2192 51.1073H26.9001V55.9634H26.2192V55.2945C26.0281 55.5513 25.825 55.7484 25.598 55.8798C25.371 56.0112 25.1261 56.0769 24.8693 56.0769C24.4332 56.0769 24.0928 55.9336 23.8479 55.6528C23.603 55.3721 23.4775 54.9958 23.4775 54.5239V51.1133H24.1465V54.5239C24.1465 54.8465 24.2182 55.0854 24.3616 55.2467C24.5049 55.4079 24.7199 55.4916 25.0067 55.4916C25.365 55.4916 25.6577 55.3482 25.8847 55.0615C26.1117 54.7748 26.2252 54.4045 26.2252 53.9565V51.1073H26.2192Z" fill="black"/>
    <path d="M28.8649 49.6559H29.4742V51.1014H30.4478V51.6569H29.4742V55.0496C29.4742 55.193 29.516 55.3005 29.5936 55.3722C29.6713 55.4438 29.7908 55.4797 29.952 55.4797C30.0954 55.4797 30.2626 55.4259 30.4538 55.3184V55.9575C30.2148 56.0292 29.9819 56.071 29.7609 56.071C29.4861 56.071 29.2591 55.9934 29.08 55.844C28.9067 55.6887 28.8171 55.4618 28.8171 55.1512V51.6629H28.1123V51.1074H28.8171L28.8649 49.6559Z" fill="black"/>
    <path d="M31.5591 54.9062C32.0608 55.2944 32.5387 55.4856 32.9986 55.4856C33.351 55.4856 33.6437 55.4019 33.8707 55.2347C34.0977 55.0675 34.2171 54.8524 34.2171 54.5956C34.2171 54.4104 34.1395 54.2491 33.9901 54.1237C33.8348 53.9983 33.5422 53.8728 33.1061 53.7534C32.5685 53.5981 32.1743 53.4248 31.9294 53.2277C31.6845 53.0306 31.5591 52.7559 31.5591 52.4094C31.5591 52.0092 31.7263 51.6747 32.0608 51.4059C32.3953 51.1371 32.8075 50.9998 33.2973 50.9998C33.6915 50.9998 34.1395 51.1312 34.6412 51.394V52.1108C34.2171 51.7583 33.7751 51.5791 33.3271 51.5791C33.0165 51.5791 32.7656 51.6568 32.5626 51.8121C32.3655 51.9674 32.2639 52.1585 32.2639 52.3795C32.2639 52.5647 32.3535 52.72 32.5327 52.8395C32.7059 52.9649 33.0046 53.0784 33.4107 53.1859C34.4142 53.4487 34.916 53.9027 34.916 54.5418C34.916 54.9719 34.7308 55.3362 34.3664 55.6289C33.9961 55.9216 33.5541 56.0709 33.0285 56.0709C32.5446 56.0709 32.0549 55.9216 31.5651 55.6289V54.9062H31.5591Z" fill="black"/>
    <path d="M36.3317 48.8555H37.0126V51.7703C37.1798 51.5135 37.377 51.3164 37.598 51.191C37.819 51.0595 38.0698 50.9998 38.3506 50.9998C38.7687 50.9998 39.1092 51.1372 39.36 51.4179C39.6109 51.6987 39.7423 52.0511 39.7423 52.4811V55.9635H39.0614V52.4811C39.0614 52.2124 38.9778 51.9973 38.8165 51.836C38.6552 51.6748 38.4521 51.5912 38.2072 51.5912C37.8727 51.5912 37.586 51.7285 37.3531 52.0033C37.1201 52.2781 37.0066 52.6006 37.0066 52.959V55.9575H36.3257V48.8555H36.3317Z" fill="black"/>
    <path d="M44.1445 51.1073H44.8254V55.9634H44.1445V55.2945C43.9534 55.5513 43.7503 55.7484 43.5233 55.8798C43.2963 56.0112 43.0514 56.0769 42.7946 56.0769C42.3585 56.0769 42.0181 55.9336 41.7732 55.6528C41.5283 55.3721 41.4028 54.9958 41.4028 54.5239V51.1133H42.0718V54.5239C42.0718 54.8465 42.1435 55.0854 42.2869 55.2467C42.4302 55.4079 42.6452 55.4916 42.932 55.4916C43.2903 55.4916 43.583 55.3482 43.81 55.0615C44.037 54.7748 44.1505 54.4045 44.1505 53.9565V51.1073H44.1445Z" fill="black"/>
    <path d="M46.5039 48.8555H47.1789V53.2397L48.9947 51.1073H49.7891L48.1943 52.8933L50.034 55.9635H49.2157L47.7762 53.3592L47.1789 54.0222V55.9635H46.5039V48.8555Z" fill="black"/>
    <path d="M54.2329 48.8555H56.3115C56.9626 48.8555 57.4823 49.0108 57.8526 49.3154C58.2289 49.626 58.4141 50.08 58.4141 50.6832C58.4141 51.3283 58.1991 51.8301 57.775 52.1885C57.3509 52.5469 56.7894 52.726 56.0905 52.726H54.9676V55.9575H54.2329V48.8555ZM54.9676 49.4647V52.1287H56.0786C56.5505 52.1287 56.9328 52.0033 57.2195 51.7584C57.5062 51.5135 57.6555 51.1671 57.6555 50.7251C57.6555 50.3308 57.536 50.0202 57.2971 49.7932C57.0582 49.5722 56.7237 49.4588 56.2996 49.4588H54.9676V49.4647Z" fill="black"/>
    <path d="M60.5409 51.8242C60.7022 51.5434 60.8814 51.3403 61.0845 51.197C61.2816 51.0596 61.5026 50.9879 61.7356 50.9879C61.9148 50.9879 62.088 51.0238 62.2672 51.1014V51.7047C62.0581 51.627 61.8849 51.5912 61.7415 51.5912C61.4011 51.5912 61.1144 51.7405 60.8874 52.0452C60.6604 52.3498 60.5409 52.6903 60.5409 53.0845V55.9575H59.8779V51.1014H60.4812L60.5409 51.8242Z" fill="black"/>
    <path d="M63.79 48.957C64.0587 48.957 64.1902 49.1482 64.1902 49.5304C64.1902 49.9366 64.0528 50.1337 63.778 50.1337C63.5152 50.1337 63.3838 49.9366 63.3838 49.5484C63.3838 49.1541 63.5212 48.957 63.79 48.957ZM63.4435 51.1073H64.1245V55.9635H63.4435V51.1073Z" fill="black"/>
    <path d="M65.797 51.1073H66.4122L66.4779 51.8001C66.6571 51.5314 66.8602 51.3342 67.0872 51.1969C67.3142 51.0654 67.565 50.9938 67.8398 50.9938C68.2758 50.9938 68.6163 51.1312 68.8612 51.4119C69.1061 51.6926 69.2256 52.063 69.2256 52.5289V55.9634H68.5446V52.5289C68.5446 52.2422 68.467 52.0152 68.3057 51.8479C68.1504 51.6807 67.9413 51.5911 67.6905 51.5911C67.35 51.5911 67.0573 51.7344 66.8244 52.0152C66.5854 52.2959 66.472 52.6244 66.472 52.9948V55.9574H65.791V51.1073H65.797Z" fill="black"/>
    <path d="M71.1491 49.6559H71.7584V51.1014H72.732V51.6569H71.7584V55.0496C71.7584 55.193 71.8002 55.3005 71.8778 55.3722C71.9555 55.4438 72.0749 55.4797 72.2362 55.4797C72.3796 55.4797 72.5468 55.4259 72.7379 55.3184V55.9575C72.499 56.0292 72.2661 56.071 72.0451 56.071C71.7703 56.071 71.5433 55.9934 71.3641 55.844C71.1909 55.6887 71.1013 55.4618 71.1013 55.1512V51.6629H70.3965V51.1074H71.1013L71.1491 49.6559Z" fill="black"/>
    <path d="M77.4626 55.4497C76.919 55.8619 76.3814 56.0709 75.8618 56.0709C75.2525 56.0709 74.7567 55.838 74.3804 55.378C74.0041 54.9121 73.813 54.3089 73.813 53.5682C73.813 52.8036 74.0101 52.1824 74.3984 51.7046C74.7866 51.2327 75.2824 50.9938 75.8737 50.9938C76.3993 50.9938 76.8234 51.1849 77.146 51.5672C77.4626 51.9495 77.6238 52.4333 77.6238 53.0127V53.3293H74.5118V53.5801C74.5118 54.2133 74.6492 54.6911 74.93 55.0137C75.2107 55.3362 75.5332 55.4975 75.9096 55.4975C76.4292 55.4975 76.9489 55.2287 77.4685 54.6852V55.4497H77.4626ZM76.9071 52.7857C76.8951 52.3855 76.7816 52.0809 76.5785 51.8778C76.3755 51.6747 76.1365 51.5791 75.8618 51.5791C75.587 51.5791 75.3302 51.6807 75.0912 51.8778C74.8523 52.0809 74.6851 52.3795 74.5835 52.7857H76.9071Z" fill="black"/>
    <path d="M79.7859 51.8242C79.9472 51.5434 80.1264 51.3403 80.3295 51.197C80.5266 51.0596 80.7476 50.9879 80.9865 50.9879C81.1598 50.9879 81.339 51.0238 81.5182 51.1014V51.7047C81.3091 51.627 81.1359 51.5912 80.9925 51.5912C80.6521 51.5912 80.3653 51.7405 80.1384 52.0452C79.9114 52.3498 79.7919 52.6903 79.7919 53.0845V55.9575H79.1289V51.1014H79.7322L79.7859 51.8242Z" fill="black"/>
    <path d="M82.9043 54.9062C83.406 55.2944 83.8839 55.4856 84.3438 55.4856C84.6962 55.4856 84.9889 55.4019 85.2159 55.2347C85.4429 55.0675 85.5623 54.8524 85.5623 54.5956C85.5623 54.4104 85.4847 54.2491 85.3354 54.1237C85.1801 53.9983 84.8874 53.8728 84.4513 53.7534C83.9138 53.5981 83.5195 53.4248 83.2746 53.2277C83.0297 53.0306 82.9043 52.7559 82.9043 52.4094C82.9043 52.0092 83.0716 51.6747 83.406 51.4059C83.7405 51.1371 84.1527 50.9998 84.6425 50.9998C85.0367 50.9998 85.4847 51.1312 85.9864 51.394V52.1108C85.5623 51.7583 85.1203 51.5791 84.6723 51.5791C84.3617 51.5791 84.1109 51.6568 83.9078 51.8121C83.7107 51.9674 83.6091 52.1585 83.6091 52.3795C83.6091 52.5647 83.6987 52.72 83.8779 52.8395C84.0511 52.9649 84.3498 53.0784 84.756 53.1859C85.7594 53.4487 86.2612 53.9027 86.2612 54.5418C86.2612 54.9719 86.076 55.3362 85.7117 55.6289C85.3413 55.9216 84.8993 56.0709 84.3737 56.0709C83.8899 56.0709 83.4001 55.9216 82.9103 55.6289V54.9062H82.9043Z" fill="black"/>
    <path d="M90.8481 48.8555H91.5828V55.3542H94.3783V55.9575H90.8541V48.8555H90.8481Z" fill="black"/>
    <path d="M95.9491 48.957C96.2179 48.957 96.3493 49.1482 96.3493 49.5304C96.3493 49.9366 96.212 50.1337 95.9372 50.1337C95.6744 50.1337 95.543 49.9366 95.543 49.5484C95.543 49.1541 95.6804 48.957 95.9491 48.957ZM95.6027 51.1073H96.2836V55.9635H95.6027V51.1073Z" fill="black"/>
    <path d="M100.949 51.8003C101.086 51.5255 101.26 51.3284 101.469 51.191C101.672 51.0596 101.911 50.9879 102.173 50.9879C102.562 50.9879 102.866 51.1134 103.087 51.3583C103.302 51.6031 103.416 51.9317 103.416 52.3319V55.9516H102.735V52.3259C102.735 52.0929 102.669 51.9137 102.538 51.7764C102.406 51.639 102.245 51.5733 102.048 51.5733C101.761 51.5733 101.522 51.7047 101.319 51.9615C101.116 52.2184 101.015 52.5111 101.015 52.8396V55.9575H100.34V52.3378C100.34 52.0929 100.286 51.9018 100.172 51.7823C100.065 51.6569 99.8977 51.5972 99.6767 51.5972C99.3721 51.5972 99.1212 51.7226 98.9241 51.9795C98.727 52.2363 98.6254 52.5588 98.6254 52.9471V55.9635H97.9624V51.1074H98.5537L98.6254 51.7286C98.7747 51.4837 98.948 51.2985 99.1451 51.1791C99.3422 51.0536 99.5692 50.9939 99.826 50.9939C100.107 50.9939 100.346 51.0596 100.537 51.197C100.716 51.3284 100.853 51.5315 100.949 51.8003Z" fill="black"/>
    <path d="M105.482 48.957C105.751 48.957 105.883 49.1482 105.883 49.5304C105.883 49.9366 105.745 50.1337 105.47 50.1337C105.208 50.1337 105.076 49.9366 105.076 49.5484C105.076 49.1541 105.214 48.957 105.482 48.957ZM105.136 51.1073H105.817V55.9635H105.136V51.1073Z" fill="black"/>
    <path d="M107.728 49.6559H108.337V51.1014H109.311V51.6569H108.337V55.0496C108.337 55.193 108.379 55.3005 108.457 55.3722C108.535 55.4438 108.654 55.4797 108.815 55.4797C108.959 55.4797 109.126 55.4259 109.317 55.3184V55.9575C109.078 56.0292 108.845 56.071 108.624 56.071C108.349 56.071 108.122 55.9934 107.943 55.844C107.764 55.6887 107.68 55.4618 107.68 55.1512V51.6629H106.976V51.1074H107.68L107.728 49.6559Z" fill="black"/>
    <path d="M114.042 55.4497C113.498 55.8619 112.961 56.0709 112.441 56.0709C111.832 56.0709 111.336 55.838 110.96 55.378C110.583 54.9121 110.392 54.3089 110.392 53.5682C110.392 52.8036 110.589 52.1824 110.977 51.7046C111.366 51.2327 111.861 50.9938 112.453 50.9938C112.978 50.9938 113.403 51.1849 113.725 51.5672C114.042 51.9495 114.203 52.4333 114.203 53.0127V53.3293H111.091V53.5801C111.091 54.2133 111.228 54.6911 111.509 55.0137C111.79 55.3362 112.112 55.4975 112.489 55.4975C113.008 55.4975 113.522 55.2287 114.048 54.6852V55.4497H114.042ZM113.486 52.7857C113.474 52.3855 113.361 52.0809 113.158 51.8778C112.955 51.6747 112.716 51.5791 112.441 51.5791C112.166 51.5791 111.909 51.6807 111.67 51.8778C111.431 52.0809 111.264 52.3795 111.163 52.7857H113.486Z" fill="black"/>
    <path d="M118.486 48.8555H119.167V55.9575H118.486V55.2766C118.319 55.5394 118.128 55.7425 117.913 55.8739C117.698 56.0053 117.465 56.071 117.208 56.071C116.67 56.071 116.234 55.8201 115.894 55.3184C115.559 54.8166 115.392 54.2313 115.392 53.5683C115.392 52.8575 115.577 52.2482 115.948 51.7465C116.318 51.2447 116.784 50.9938 117.351 50.9938C117.536 50.9938 117.722 51.0357 117.907 51.1133C118.098 51.191 118.289 51.3104 118.48 51.4717V48.8555H118.486ZM118.486 52.0809C118.349 51.9197 118.193 51.7942 118.026 51.7166C117.859 51.6389 117.68 51.5971 117.489 51.5971C117.088 51.5971 116.76 51.7763 116.491 52.1347C116.228 52.4931 116.091 52.9709 116.091 53.5623C116.091 54.1178 116.21 54.5717 116.443 54.9361C116.676 55.3005 116.975 55.4796 117.339 55.4796C117.662 55.4796 117.931 55.3482 118.152 55.0794C118.373 54.8107 118.486 54.4702 118.486 54.058V52.0809Z" fill="black"/>
    <path d="M56.7603 16.2184C52.5074 11.9715 55.6971 5.58623 58.8808 1.33337H41.6543V35.3622H58.8808C64.2028 30.0461 64.2028 21.5344 56.7603 16.2184Z" fill="#F47920"/>
    <path d="M58.8809 1.33337C55.6973 5.58623 52.5076 11.9715 56.7605 16.2184C64.203 21.5344 64.203 30.0461 58.8809 35.3622H75.6893V1.33337H58.8809Z" fill="#FBB784"/>
    <path d="M58.8809 1.33337C55.6973 5.58623 52.5076 11.9715 56.7605 16.2184C64.203 21.5344 64.203 30.0461 58.8809 35.3622" stroke="white" stroke-width="2.3172"/>
    <path d="M58.8808 1.33337H41.6543V35.3622H58.8808H75.6891V1.33337H58.8808Z" stroke="#333333" stroke-width="2.3172"/>
    <path d="M40.7108 38.5697C40.7108 38.2471 40.7048 37.9783 40.6929 37.7394H41.105L41.1289 38.1755H41.1409C41.32 37.8589 41.6247 37.6797 42.0249 37.6797C42.6401 37.6797 43.0941 38.1993 43.0941 38.9759C43.0941 39.8897 42.5386 40.3437 41.9532 40.3437C41.6187 40.3437 41.332 40.1944 41.1767 39.9435H41.1707V41.3293H40.7108V38.5697ZM41.1647 39.2506C41.1647 39.3103 41.1707 39.382 41.1827 39.4358C41.2603 39.7583 41.5411 39.9793 41.8636 39.9793C42.3474 39.9793 42.6282 39.5791 42.6282 38.9938C42.6282 38.4861 42.3713 38.044 41.8875 38.044C41.5769 38.044 41.2782 38.2651 41.1886 38.6115C41.1767 38.6772 41.1647 38.7429 41.1647 38.8026V39.2506Z" fill="#333333"/>
    <path d="M46.4691 38.5339C46.4691 38.2352 46.4631 37.9724 46.4512 37.7394H46.8514L46.8693 38.2412H46.8872C47.0007 37.9007 47.2814 37.6857 47.5861 37.6857C47.6339 37.6857 47.6697 37.6916 47.7115 37.7036V38.1337C47.6577 38.1277 47.61 38.1217 47.5502 38.1217C47.2277 38.1217 47.0007 38.3666 46.935 38.713C46.923 38.7788 46.9171 38.8564 46.9171 38.9341V40.2959H46.4571L46.4691 38.5339Z" fill="#333333"/>
    <path d="M51.1998 37.2676C51.0266 37.2676 50.9131 37.1302 50.9131 36.9689C50.9131 36.8077 51.0326 36.6703 51.2058 36.6703C51.385 36.6703 51.4985 36.8017 51.4985 36.9689C51.5044 37.1302 51.3909 37.2676 51.1998 37.2676ZM50.9848 40.29V37.7395H51.4387V40.29H50.9848Z" fill="#333333"/>
    <path d="M54.9989 38.4323C54.9989 38.1635 54.9929 37.9545 54.981 37.7394H55.3871L55.417 38.1575H55.423C55.5484 37.9186 55.8411 37.6797 56.2532 37.6797C56.5997 37.6797 57.1372 37.8947 57.1372 38.7668V40.2899H56.6833V38.8206C56.6833 38.4084 56.534 38.062 56.1039 38.062C55.8112 38.062 55.5723 38.277 55.4887 38.5338C55.4708 38.5936 55.4588 38.6772 55.4588 38.7489V40.2899H55.0048V38.4323H54.9989Z" fill="#333333"/>
    <path d="M61.2104 37.1301V37.7394H61.8674V38.0918H61.2104V39.4656C61.2104 39.7822 61.3 39.9614 61.5508 39.9614C61.6763 39.9614 61.748 39.9494 61.8137 39.9315L61.8316 40.2839C61.742 40.3138 61.6046 40.3496 61.4254 40.3496C61.2104 40.3496 61.0431 40.278 60.9296 40.1525C60.8042 40.0092 60.7564 39.7822 60.7564 39.4835V38.0918H60.3682V37.7394H60.7564V37.2675L61.2104 37.1301Z" fill="#333333"/>
    <path d="M65.4094 39.0953C65.4214 39.7225 65.8096 39.9793 66.2636 39.9793C66.5861 39.9793 66.7892 39.9196 66.9564 39.8539L67.0401 40.1824C66.8788 40.2541 66.5981 40.3437 66.1979 40.3437C65.4273 40.3437 64.9614 39.824 64.9614 39.0595C64.9614 38.283 65.4154 37.6797 66.1441 37.6797C66.9624 37.6797 67.1774 38.4084 67.1774 38.8803C67.1774 38.9759 67.1715 39.0475 67.1595 39.1013L65.4094 39.0953ZM66.7414 38.7608C66.7474 38.4681 66.6219 38.0082 66.1142 38.0082C65.6483 38.0082 65.4512 38.4383 65.4094 38.7608H66.7414Z" fill="#333333"/>
    <path d="M70.5585 38.5339C70.5585 38.2352 70.5525 37.9724 70.5405 37.7394H70.9407L70.9586 38.2412H70.9766C71.0901 37.9007 71.3708 37.6857 71.6754 37.6857C71.7232 37.6857 71.759 37.6916 71.8009 37.7036V38.1337C71.7471 38.1277 71.6993 38.1217 71.6396 38.1217C71.317 38.1217 71.0901 38.3666 71.0244 38.713C71.0124 38.7788 71.0124 38.8564 71.0124 38.9341V40.2959H70.5525L70.5585 38.5339Z" fill="#333333"/>
    <path d="M74.9906 39.824C75.1339 39.9077 75.3729 40.0032 75.5998 40.0032C75.9284 40.0032 76.0837 39.842 76.0837 39.6269C76.0837 39.4059 75.9523 39.2865 75.6237 39.155C75.1638 38.9878 74.9547 38.7369 74.9547 38.4323C74.9547 38.0202 75.2892 37.6797 75.8208 37.6797C76.0777 37.6797 76.2987 37.7454 76.4361 37.835L76.3286 38.1695C76.233 38.1098 76.0478 38.0202 75.8149 38.0202C75.5461 38.0202 75.4027 38.1755 75.4027 38.3666C75.4027 38.5816 75.5461 38.6772 75.8746 38.8026C76.3047 38.9639 76.5316 39.1849 76.5316 39.5732C76.5316 40.0271 76.1852 40.3437 75.5998 40.3437C75.3251 40.3437 75.0682 40.272 74.895 40.1645L74.9906 39.824Z" fill="#333333"/>
</svg>
